<svg width="107" height="107" viewBox="0 0 107 107" fill="none" xmlns="http://www.w3.org/2000/svg">
<path d="M103.766 66.0602H3.79367C3.59533 66.0663 3.40281 66.1287 3.23861 66.2401C3.07442 66.3515 2.94529 66.5074 2.86633 66.6894C2.78737 66.8715 2.76184 67.0722 2.79269 67.2682C2.82354 67.4642 2.90952 67.6474 3.04058 67.7964C5.90651 70.8193 12.7575 76.7185 22.7778 76.8754C23.0449 76.8819 23.2994 76.9904 23.489 77.1787L26.2399 79.9296C26.4347 80.1228 26.6977 80.2317 26.9721 80.2329H80.5879C80.8623 80.2317 81.1252 80.1228 81.32 79.9296L84.0709 77.1787C84.2606 76.9904 84.515 76.8819 84.7822 76.8754C94.8024 76.7185 101.653 70.8193 104.519 67.7964C104.65 67.6474 104.736 67.4642 104.767 67.2682C104.798 67.0722 104.773 66.8715 104.694 66.6894C104.615 66.5074 104.486 66.3515 104.321 66.2401C104.157 66.1287 103.965 66.0663 103.766 66.0602Z" fill="#F8E4BE"/>
<path d="M103.651 39.4719C103.034 34.9429 99.4674 31.8678 95.1895 30.8009C92.063 30.1135 88.8372 30.0036 85.6713 30.4767C85.6713 29.0019 85.7445 27.82 85.7445 27.046C85.7445 26.7686 85.6343 26.5025 85.4381 26.3064C85.242 26.1102 84.9759 26 84.6985 26H22.8406C22.5632 26 22.2971 26.1102 22.101 26.3064C21.9048 26.5025 21.7946 26.7686 21.7946 27.046C21.7946 33.2171 22.6523 65.1293 38.6345 66.0602H68.9568C71.8903 65.8735 74.6411 64.5711 76.6446 62.4203C80.5469 62.208 84.3879 61.3564 88.0142 59.8995C92.3593 58.1194 96.2226 55.3384 99.2896 51.7829C102.093 48.4462 104.268 43.9486 103.651 39.4719ZM96.7793 47.0551C94.5522 50.6405 91.3972 53.5571 87.6481 55.496C85.1011 56.8596 82.371 57.8495 79.5419 58.4352C82.2928 53.6133 83.8408 47.2434 84.6881 41.407C86.4008 40.8531 87.9352 39.8531 89.1334 38.5097C89.9333 37.5707 91.0166 36.9172 92.2202 36.6474C93.4238 36.3776 94.6825 36.5063 95.8066 37.0139C99.8649 39.0431 98.5993 43.9068 96.7793 47.0551Z" fill="#F8E4BE"/>
<path d="M79.908 59.4183C85.5431 58.154 90.6911 55.2839 94.7293 51.1552C96.9932 48.8739 98.548 45.9858 99.206 42.8399C99.7185 39.702 98.3064 36.7733 95.1581 35.8738C93.4822 35.4299 91.6991 35.6588 90.1898 36.5118C89.0666 37.2393 88.0158 38.0729 87.0519 39.0012C88.83 37.244 90.3258 35.5391 93.0034 35.309C94.5534 35.159 96.1022 35.6057 97.3343 36.558C98.5664 37.5102 99.3891 38.8964 99.6348 40.4341C100.126 43.7289 98.411 47.1283 96.4969 49.6804C94.403 52.36 91.7878 54.5874 88.8091 56.2281C86.0473 57.7948 83.0363 58.874 79.908 59.4183Z" fill="#54372B"/>
<path d="M24.8279 76.5405L33.8754 76.4673L53.7486 76.4045L73.6218 76.4673L82.6694 76.5405L73.6218 76.6137H53.7486H33.8754L24.8279 76.5405Z" fill="#54372B"/>
<path d="M4.89194 68.1208L53.78 67.9849L102.668 68.1208L53.78 68.2464L4.89194 68.1208Z" fill="#54372B"/>
<path d="M34.5867 61.3323C30.6016 57.2531 28.9699 51.2388 27.6834 45.8417C26.538 40.9077 25.8379 35.8809 25.5915 30.8217L28.7293 30.6753C29.0954 41.0721 30.0054 51.7827 34.5867 61.3323Z" fill="#54372B"/>
</svg>
