<svg width="74" height="95" viewBox="0 0 74 95" fill="none" xmlns="http://www.w3.org/2000/svg">
<g filter="url(#filter0_d_1_1018)">
<path d="M36.8734 1C22.0168 1 10 13.0264 10 27.8957C10 40.263 18.3085 50.6487 29.6489 53.8028C29.8718 53.868 30.0613 54.0159 30.1778 54.2167L36.8733 65.7895L43.5688 54.2167C43.6854 54.0159 43.8749 53.868 44.0978 53.8028C55.4348 50.6458 63.7466 40.2596 63.7466 27.8957C63.7466 13.0247 51.7301 1 36.8732 1H36.8734ZM36.8734 8.98406C47.3534 8.98406 55.878 17.4997 55.878 27.9887C55.878 38.4777 47.3538 46.9933 36.8734 46.9933C26.393 46.9933 17.8688 38.4777 17.8688 27.9887C17.8688 17.4997 26.393 8.98406 36.8734 8.98406ZM31.9267 14.2528C31.5672 14.299 31.2821 14.5779 31.2287 14.9363C31.1753 15.2948 31.3664 15.6451 31.6966 15.794C32.3406 16.1103 32.7022 16.4319 32.8932 16.6681C33.0843 16.9048 33.1259 17.0389 33.1233 17.2433C33.1161 17.6521 32.7648 18.3608 32.2718 19.1302C31.7788 19.8996 31.1609 20.731 31.1214 21.8224C31.1014 22.3678 31.2667 22.9543 31.6504 23.4561C32.034 23.9579 32.5871 24.4011 33.3528 24.7903H33.3533C33.5454 24.8879 33.7683 24.9054 33.9732 24.8386C34.1786 24.7718 34.3486 24.626 34.4462 24.4339C34.5438 24.2418 34.5613 24.0184 34.494 23.8135C34.4272 23.6086 34.2814 23.4386 34.0893 23.341C33.4648 23.0231 33.1176 22.7237 32.9389 22.4895C32.7596 22.2553 32.7242 22.1012 32.7319 21.8912C32.7473 21.4711 33.1346 20.7772 33.6291 20.0043C34.1242 19.2319 34.7426 18.3629 34.7564 17.2664C34.7636 16.7179 34.5566 16.1268 34.1581 15.6327C33.7601 15.1387 33.191 14.7283 32.4094 14.3442L32.4099 14.3447C32.2892 14.2815 32.1546 14.2502 32.0185 14.2528C31.9877 14.2507 31.9574 14.2507 31.9266 14.2528L31.9267 14.2528ZM36.2982 15.6332C35.9972 15.6733 35.7441 15.8782 35.6424 16.1643C35.5402 16.4503 35.6069 16.7693 35.8149 16.9906C36.3254 17.5648 36.3501 17.8421 36.2982 18.1641C36.2468 18.4862 36.0101 18.9119 35.6999 19.4296C35.3897 19.9473 34.9937 20.5872 34.9634 21.4084C34.9331 22.2296 35.325 23.1022 36.1826 23.9393H36.1831C36.329 24.1165 36.5437 24.2233 36.7732 24.2336C37.0028 24.2433 37.2257 24.155 37.387 23.9912C37.5477 23.8268 37.6309 23.6024 37.6165 23.3728C37.6022 23.1438 37.4907 22.9312 37.3104 22.7889C36.6556 22.15 36.5858 21.7689 36.5971 21.4547C36.6089 21.1404 36.7856 20.7727 37.0804 20.2812C37.3746 19.7902 37.7609 19.215 37.8856 18.4405C38.0104 17.6661 37.767 16.734 37.0341 15.9096L37.0347 15.9091C36.8677 15.7176 36.6207 15.6154 36.367 15.6333C36.3439 15.6323 36.3208 15.6323 36.2977 15.6333L36.2982 15.6332ZM26.1747 26.5158C25.8033 26.5933 25.5353 26.9184 25.5306 27.298C25.5306 27.298 25.5101 28.7237 25.6226 30.4728C25.7356 32.2221 25.9543 34.2743 26.6117 35.7878C27.3836 37.5653 28.9433 39.1902 30.1317 40.3663L30.1322 40.3668C30.2858 40.5167 30.4927 40.5994 30.7074 40.5969H38.0931H38.0926C38.3073 40.5994 38.5142 40.5167 38.6678 40.3668C39.7499 39.297 41.135 37.861 41.9577 36.2716C42.0296 36.2644 42.3578 36.2341 42.8318 36.1566C43.3551 36.0713 43.9519 35.9635 44.4655 35.7426C45.6246 35.2434 46.7529 34.4746 47.4334 33.5569C47.8401 33.0089 48.2659 32.3253 48.4225 31.5093C48.5797 30.6932 48.3968 29.7144 47.6861 28.9321C47.249 28.4514 46.6892 28.2989 46.1218 28.1731C45.5538 28.0467 44.938 27.9897 44.373 27.9661C43.9427 27.9481 43.5991 27.9594 43.2688 27.9661V27.299L43.2694 27.2979C43.2545 26.8635 42.8991 26.5183 42.4641 26.5158H26.3348C26.2814 26.5106 26.2274 26.5106 26.174 26.5158L26.1747 26.5158ZM43.2466 29.5756C43.564 29.5689 43.9014 29.5587 44.3051 29.5756C44.8141 29.5972 45.362 29.6444 45.7775 29.7369C46.1935 29.8293 46.4693 30.0127 46.4908 30.0358C46.8883 30.4728 46.9181 30.781 46.836 31.2093C46.7538 31.6376 46.477 32.1435 46.1457 32.5898C45.7611 33.108 44.7488 33.847 43.8218 34.2466C43.6241 34.3319 43.0714 34.468 42.6026 34.5455C42.9492 33.2528 43.1167 31.7778 43.2009 30.4728C43.2214 30.1513 43.2353 29.8683 43.2466 29.5756H43.2466Z" fill="#F9C06A"/>
<path d="M14.9783 75.7089L13.8094 76.201C13.7182 75.9048 13.5952 75.6337 13.4402 75.3876C13.2898 75.1415 13.1075 74.9318 12.8934 74.7587C12.6837 74.5809 12.4445 74.4442 12.1756 74.3485C11.9067 74.2483 11.6128 74.1981 11.2937 74.1981C10.952 74.1981 10.6375 74.2551 10.3504 74.369C10.0678 74.4784 9.81263 74.6311 9.58476 74.827C9.36146 75.023 9.16549 75.2509 8.99687 75.5106C8.82825 75.7704 8.68698 76.0484 8.57304 76.3446C8.45911 76.6363 8.3748 76.9393 8.32011 77.2538C8.26543 77.5682 8.23808 77.8759 8.23808 78.1766C8.23808 78.6552 8.29277 79.1314 8.40215 79.6053C8.51608 80.0793 8.69381 80.5054 8.93535 80.8837C9.18144 81.2619 9.49817 81.5695 9.88554 81.8065C10.2729 82.0389 10.7423 82.1552 11.2937 82.1552C11.5854 82.1552 11.8611 82.1073 12.1209 82.0116C12.3807 81.9113 12.6154 81.7769 12.825 81.6083C13.0392 81.4351 13.226 81.2323 13.3855 80.9999C13.545 80.7675 13.6727 80.5168 13.7684 80.2479L14.951 80.7196C14.7778 81.1525 14.5408 81.5331 14.24 81.8612C13.9393 82.1848 13.5952 82.4537 13.2078 82.6678C12.825 82.882 12.4126 83.0415 11.9705 83.1464C11.533 83.2557 11.0909 83.3104 10.6443 83.3104C10.1613 83.3104 9.69642 83.2512 9.2498 83.1327C8.80774 83.0142 8.39531 82.8456 8.0125 82.6268C7.62968 82.4081 7.28105 82.1438 6.9666 81.8339C6.6567 81.524 6.3901 81.1799 6.16679 80.8016C5.94804 80.4234 5.77715 80.0132 5.6541 79.5712C5.53561 79.1246 5.47636 78.6597 5.47636 78.1766C5.47636 77.6936 5.53561 77.231 5.6541 76.7889C5.77715 76.3423 5.94804 75.9299 6.16679 75.5516C6.3901 75.1688 6.6567 74.8225 6.9666 74.5126C7.28105 74.2027 7.62968 73.9384 8.0125 73.7196C8.39531 73.5009 8.80774 73.3322 9.2498 73.2137C9.69642 73.0953 10.1613 73.036 10.6443 73.036C11.1092 73.036 11.5626 73.0907 12.0047 73.2001C12.4513 73.3094 12.866 73.4758 13.2488 73.6991C13.6316 73.9178 13.9712 74.1958 14.2674 74.5331C14.5682 74.8658 14.8051 75.2577 14.9783 75.7089ZM26.4963 78.4022V78.5321C26.4872 78.9149 26.4462 79.3114 26.3733 79.7216C26.3049 80.1317 26.2069 80.5419 26.0793 80.952C25.9517 81.3622 25.7991 81.7678 25.6213 82.1688C25.4436 82.5699 25.2431 82.9527 25.0198 83.3173C24.801 83.6864 24.564 84.0305 24.3088 84.3495C24.0536 84.6731 23.7847 84.9579 23.5022 85.204L22.4836 84.6161C22.6431 84.3472 22.7867 84.0533 22.9143 83.7343C23.0465 83.4198 23.1649 83.0894 23.2698 82.743C23.3746 82.3967 23.4634 82.0412 23.5364 81.6766C23.6138 81.3121 23.6776 80.9497 23.7278 80.5897C23.7779 80.2297 23.8144 79.8765 23.8371 79.5302C23.8645 79.1792 23.8782 78.8466 23.8782 78.5321C23.8782 78.286 23.8759 78.008 23.8713 77.6981C23.8713 77.3837 23.8531 77.0647 23.8166 76.7411C23.7847 76.4175 23.73 76.1031 23.6526 75.7977C23.5751 75.4878 23.4589 75.2121 23.3039 74.9706C23.1536 74.729 22.9576 74.5354 22.7161 74.3895C22.4791 74.2437 22.1828 74.1708 21.8274 74.1708C21.5129 74.1708 21.2418 74.2255 21.0139 74.3348C20.7906 74.4397 20.5992 74.5832 20.4397 74.7655C20.2847 74.9432 20.1594 75.1506 20.0637 75.3876C19.9726 75.6246 19.8996 75.8752 19.845 76.1395C19.7948 76.3993 19.7606 76.6636 19.7424 76.9325C19.7287 77.1968 19.7219 77.4475 19.7219 77.6844V79.5917H22.6682V80.7196H19.7219V83.1122H17.008V78.1083C17.008 77.3928 17.122 76.7274 17.3498 76.1122C17.5777 75.4969 17.899 74.9637 18.3137 74.5126C18.733 74.0568 19.2343 73.7014 19.8176 73.4462C20.4055 73.1864 21.0595 73.0565 21.7795 73.0565C22.2672 73.0565 22.7229 73.1272 23.1467 73.2684C23.5751 73.4052 23.9647 73.5966 24.3157 73.8427C24.6666 74.0842 24.9787 74.3736 25.2522 74.7108C25.5302 75.0435 25.7603 75.4081 25.9426 75.8046C26.1295 76.201 26.2707 76.6203 26.3664 77.0624C26.4621 77.5044 26.5054 77.951 26.4963 78.4022ZM31.5407 83.1122H28.8268V73.2684H35.8952V74.5262H31.5407V77.5682H34.904V78.8192H31.5407V83.1122ZM44.9454 83.1122H37.8771V73.2684H44.9454V74.5262H40.5909V77.5682H43.9542V78.8192H40.5909V81.8544H44.9454V83.1122ZM48.4449 83.1122H47.1871V73.2684H48.9507L54.9322 80.0292V73.2684H56.1832V83.1122H54.4195L48.4449 76.3583V83.1122ZM68.3437 78.4022V78.5321C68.3346 78.9149 68.2936 79.3114 68.2207 79.7216C68.1523 80.1317 68.0544 80.5419 67.9268 80.952C67.7991 81.3622 67.6465 81.7678 67.4687 82.1688C67.291 82.5699 67.0905 82.9527 66.8672 83.3173C66.6484 83.6864 66.4115 84.0305 66.1562 84.3495C65.901 84.6731 65.6322 84.9579 65.3496 85.204L64.3311 84.6161C64.4906 84.3472 64.6341 84.0533 64.7617 83.7343C64.8939 83.4198 65.0124 83.0894 65.1172 82.743C65.222 82.3967 65.3109 82.0412 65.3838 81.6766C65.4613 81.3121 65.5251 80.9497 65.5752 80.5897C65.6253 80.2297 65.6618 79.8765 65.6846 79.5302C65.7119 79.1792 65.7256 78.8466 65.7256 78.5321C65.7256 78.286 65.7233 78.008 65.7187 77.6981C65.7187 77.3837 65.7005 77.0647 65.6641 76.7411C65.6322 76.4175 65.5775 76.1031 65.5 75.7977C65.4225 75.4878 65.3063 75.2121 65.1514 74.9706C65.001 74.729 64.805 74.5354 64.5635 74.3895C64.3265 74.2437 64.0303 74.1708 63.6748 74.1708C63.3603 74.1708 63.0892 74.2255 62.8613 74.3348C62.638 74.4397 62.4466 74.5832 62.2871 74.7655C62.1322 74.9432 62.0068 75.1506 61.9111 75.3876C61.82 75.6246 61.7471 75.8752 61.6924 76.1395C61.6422 76.3993 61.6081 76.6636 61.5898 76.9325C61.5762 77.1968 61.5693 77.4475 61.5693 77.6844V79.5917H64.5156V80.7196H61.5693V83.1122H58.8555V78.1083C58.8555 77.3928 58.9694 76.7274 59.1973 76.1122C59.4251 75.4969 59.7464 74.9637 60.1611 74.5126C60.5804 74.0568 61.0817 73.7014 61.665 73.4462C62.2529 73.1864 62.9069 73.0565 63.6269 73.0565C64.1146 73.0565 64.5703 73.1272 64.9941 73.2684C65.4225 73.4052 65.8122 73.5966 66.1631 73.8427C66.514 74.0842 66.8262 74.3736 67.0996 74.7108C67.3776 75.0435 67.6077 75.4081 67.79 75.8046C67.9769 76.201 68.1182 76.6203 68.2139 77.0624C68.3096 77.5044 68.3529 77.951 68.3437 78.4022Z" fill="#DABB9E"/>
</g>
<defs>
<filter id="filter0_d_1_1018" x="0.476379" y="0" width="72.881" height="94.204" filterUnits="userSpaceOnUse" color-interpolation-filters="sRGB">
<feFlood flood-opacity="0" result="BackgroundImageFix"/>
<feColorMatrix in="SourceAlpha" type="matrix" values="0 0 0 0 0 0 0 0 0 0 0 0 0 0 0 0 0 0 127 0" result="hardAlpha"/>
<feOffset dy="4"/>
<feGaussianBlur stdDeviation="2.5"/>
<feComposite in2="hardAlpha" operator="out"/>
<feColorMatrix type="matrix" values="0 0 0 0 0.0916667 0 0 0 0 0.0916667 0 0 0 0 0.0916667 0 0 0 0.25 0"/>
<feBlend mode="normal" in2="BackgroundImageFix" result="effect1_dropShadow_1_1018"/>
<feBlend mode="normal" in="SourceGraphic" in2="effect1_dropShadow_1_1018" result="shape"/>
</filter>
</defs>
</svg>
