<svg width="107" height="107" viewBox="0 0 107 107" fill="none" xmlns="http://www.w3.org/2000/svg">
<path d="M53.6739 66.8082C59.0921 66.862 64.4718 65.8936 69.5312 63.9539C74.4828 69.4681 83.1276 70.2252 83.1276 70.2252C92.5601 75.2279 91.936 79.5349 92.9386 83.9545C93.076 84.5891 93.3877 85.1727 93.8387 85.6398C94.2897 86.1068 94.862 86.4388 95.4914 86.5982C96.1208 86.7577 96.7822 86.7384 97.4011 86.5424C98.0201 86.3465 98.5721 85.9817 98.9951 85.4891C100.414 83.7615 101.496 81.7836 102.187 79.6577C108.213 59.9947 97.8288 54.0814 97.8288 54.0814C98.146 31.339 77.8895 30.275 77.8895 30.275V30.3466C71.117 19.5023 53.6535 20.0036 53.6535 20.0036C53.6535 20.0036 36.19 19.5023 29.4072 30.3466V30.275C29.4072 30.275 9.20188 31.2981 9.49857 54.0098C9.49857 54.0098 -0.885397 59.964 5.14037 79.5861C5.83759 81.7113 6.92337 83.6887 8.34251 85.4175C8.76413 85.9108 9.31535 86.2764 9.93387 86.4728C10.5524 86.6693 11.2135 86.6888 11.8425 86.5292C12.4716 86.3695 13.0434 86.0371 13.4933 85.5694C13.9433 85.1018 14.2534 84.5176 14.3888 83.8829C15.4118 79.4633 14.7775 75.1563 24.21 70.1536C24.21 70.1536 32.8548 69.3965 37.8064 63.8823C42.8638 65.8491 48.2476 66.8419 53.6739 66.8082Z" fill="#F8E4BE"/>
<path d="M77.8077 48.2502C79.7008 45.0975 80.8745 41.5658 81.2452 37.9071C81.4214 35.4369 81.1157 32.956 80.3449 30.6026C79.5361 30.4222 78.7156 30.2991 77.8896 30.2343C79.2372 32.6155 79.9719 35.2943 80.0277 38.0299C80.0345 41.557 79.2771 45.0437 77.8077 48.2502Z" fill="#54372B"/>
<path d="M26.1027 37.9071C26.4683 41.5668 27.6424 45.0996 29.5402 48.2502C28.0698 45.04 27.3091 41.5505 27.3099 38.0197C27.3721 35.285 28.1064 32.6077 29.4481 30.224C28.622 30.2889 27.8015 30.4119 26.9928 30.5923C26.2241 32.9497 25.9218 35.4342 26.1027 37.9071Z" fill="#54372B"/>
<path d="M97.2866 59.6675C98.179 58.3144 98.8877 56.8489 99.3941 55.3093C98.9225 54.8191 98.3975 54.3832 97.8288 54.01C97.8288 53.8668 97.8288 53.7235 97.8288 53.5701C97.3858 57.752 95.5521 61.6643 92.6215 64.6804C94.4425 63.2782 96.0188 61.5844 97.2866 59.6675Z" fill="#54372B"/>
<path d="M14.7264 64.7109C11.7883 61.6977 9.9473 57.7851 9.49858 53.6006C9.49858 53.754 9.49858 53.8973 9.49858 54.0405C8.93386 54.4031 8.41217 54.8287 7.94354 55.3091C8.43036 56.8457 9.11836 58.3112 9.98965 59.6673C11.2801 61.5979 12.8805 63.302 14.7264 64.7109Z" fill="#54372B"/>
<path d="M99.5271 60.3324C101.686 63.9131 102.044 68.302 101.573 72.3839C101.103 76.4659 99.7215 80.6809 96.7853 83.6375C100.679 76.5161 101.662 68.163 99.5271 60.3324Z" fill="#54372B"/>
<path d="M7.81054 60.3324C5.65548 68.1718 6.62743 76.5415 10.5216 83.6784C7.57523 80.7116 6.21458 76.5171 5.73375 72.4249C5.25291 68.3327 5.66213 63.9028 7.81054 60.3324Z" fill="#54372B"/>
<path d="M82.7491 34.224C84.8167 34.6969 86.7676 35.5821 88.485 36.8267C90.2025 38.0713 91.6511 39.6496 92.7443 41.4672C94.8755 45.2788 95.6611 49.6971 94.9745 54.0098C94.3402 49.9176 93.665 45.8254 91.5166 42.2038C89.3699 38.7996 86.3397 36.0417 82.7491 34.224Z" fill="#54372B"/>
<path d="M24.5988 34.224C21.0074 36.0359 17.9766 38.7908 15.8313 42.1936C13.6726 45.8254 12.9974 49.9176 12.3631 54.0098C11.6827 49.6948 12.4755 45.2764 14.6138 41.4672C15.7044 39.6495 17.1511 38.071 18.8669 36.8263C20.5827 35.5816 22.5324 34.6965 24.5988 34.224Z" fill="#54372B"/>
<path d="M31.8522 31.8199C33.271 29.3249 35.3208 27.2469 37.7962 25.7941C40.8307 24.0764 44.1512 22.9222 47.597 22.3874C54.5026 21.2109 62.1755 21.927 68.4672 25.1701C71.4046 26.6593 73.8462 28.9694 75.4956 31.8199C73.6662 29.6745 71.3942 27.9504 68.8355 26.766C65.9081 25.4633 62.8063 24.5948 59.6281 24.1879C52.9351 23.2061 46.1028 23.9093 39.7502 26.2341C36.6928 27.4081 33.9778 29.3283 31.8522 31.8199Z" fill="#54372B"/>
<path d="M35.0032 34.0707C34.7372 34.1423 34.5326 34.5004 34.2973 35.3495L33.9495 36.6181L34.5429 35.8406C35.2795 34.8482 35.5148 33.9377 35.0032 34.0707Z" fill="#54372B"/>
<path d="M69.0708 31.9838C68.9071 32.3521 68.9378 32.5056 69.2345 32.8943C69.92 33.7844 70.1553 32.7716 69.4903 31.8713C69.3061 31.6053 69.2141 31.636 69.0708 31.9838Z" fill="#54372B"/>
<path d="M52.9476 32.2395C53.1728 32.1654 53.4066 32.1207 53.6433 32.1065C53.899 32.1065 53.8479 32.0042 53.408 31.5949C52.9681 31.1857 52.7225 31.1039 52.6202 31.8712C52.5691 32.3213 52.5998 32.3622 52.9476 32.2395Z" fill="#54372B"/>
<path d="M17.7444 44.5877C17.9696 44.5136 18.2034 44.4689 18.4401 44.4547C18.6958 44.4547 18.6447 44.3524 18.1945 43.9432C17.7444 43.534 17.5193 43.4419 17.417 44.2194C17.3659 44.6695 17.3965 44.7105 17.7444 44.5877Z" fill="#54372B"/>
<path d="M15.4425 48.6183C15.4425 48.8229 15.5244 48.9968 15.6369 48.9968C15.7494 48.9968 15.9233 48.8229 16.0052 48.6183C16.087 48.4137 16.0052 48.25 15.8108 48.25C15.7139 48.2526 15.6218 48.2922 15.5532 48.3607C15.4847 48.4293 15.4451 48.5214 15.4425 48.6183Z" fill="#54372B"/>
<path d="M88.0792 50.8079C88.0792 51.0125 88.161 51.1864 88.2735 51.1864C88.3861 51.1864 88.56 51.0125 88.6418 50.8079C88.7237 50.6033 88.6418 50.4396 88.4475 50.4396C88.3506 50.4422 88.2584 50.4818 88.1899 50.5503C88.1214 50.6188 88.0817 50.711 88.0792 50.8079Z" fill="#54372B"/>
<path d="M32.865 41.0478C32.8037 40.6181 32.7218 40.5874 32.3228 40.8432L31.8522 41.1501L32.2614 41.4672C32.773 41.8662 32.9673 41.7332 32.865 41.0478Z" fill="#54372B"/>
<path d="M19.4938 51.6876C19.4324 51.2681 19.3506 51.2374 18.9516 51.483L18.481 51.7899L18.8902 52.107C19.4017 52.506 19.5961 52.373 19.4938 51.6876Z" fill="#54372B"/>
<path d="M66.1654 29.4567C66.2036 29.5444 66.2665 29.6189 66.3465 29.6713C66.4264 29.7237 66.5199 29.7515 66.6155 29.7515C66.7111 29.7515 66.8046 29.7237 66.8846 29.6713C66.9645 29.6189 67.0275 29.5444 67.0657 29.4567C67.2294 29.201 67.1987 29.1089 66.8611 28.8225C66.6919 28.6681 66.4885 28.5559 66.2677 28.4951C65.9915 28.4337 65.9403 29.0168 66.1654 29.4567Z" fill="#54372B"/>
<path d="M87.9564 47.3804C87.9946 47.468 88.0575 47.5426 88.1375 47.5949C88.2174 47.6473 88.3109 47.6752 88.4065 47.6752C88.5021 47.6752 88.5956 47.6473 88.6756 47.5949C88.7555 47.5426 88.8185 47.468 88.8567 47.3804C89.0101 47.1349 88.9794 47.0428 88.6418 46.7563C88.4753 46.5982 88.271 46.4854 88.0484 46.429C87.7824 46.4494 87.7211 46.9814 87.9564 47.3804Z" fill="#54372B"/>
<path d="M15.2993 52.6184C15.5346 52.9049 15.8108 52.6184 15.729 52.1478C15.707 52.0601 15.6573 51.9819 15.5872 51.9247C15.5172 51.8676 15.4305 51.8346 15.3402 51.8307C15.0026 51.8307 14.9821 52.2297 15.2993 52.6184Z" fill="#54372B"/>
<path d="M56.0269 26.0295C56.2827 26.2648 56.4668 26.3058 56.5282 26.1319C56.5896 25.9579 56.2315 25.6408 56.0167 25.7329C55.8019 25.8249 55.8428 25.8659 56.0269 26.0295Z" fill="#54372B"/>
<path d="M21.1 44.4342C21.3557 44.6695 21.5399 44.7002 21.6013 44.5263C21.6627 44.3524 21.3046 44.0353 21.0795 44.1376C20.8545 44.2399 20.9158 44.2603 21.1 44.4342Z" fill="#54372B"/>
<path d="M48.8247 34.306C49.1725 34.6743 49.2134 34.6641 49.4487 34.1014C49.684 33.5387 49.5919 33.0784 49.1827 33.0784C48.7735 33.0784 48.487 33.9275 48.8247 34.306Z" fill="#54372B"/>
<path d="M67.301 37.283C67.2397 37.3243 67.1903 37.381 67.158 37.4475C67.1256 37.514 67.1115 37.5878 67.1168 37.6615C67.1168 37.7843 67.301 37.8559 67.567 37.8559C67.833 37.8559 68.0069 37.7331 67.7 37.3035C67.5567 37.0988 67.526 37.0988 67.301 37.283Z" fill="#54372B"/>
<path d="M52.2212 26.7456C52.2681 26.9786 52.3509 27.203 52.4668 27.4106C52.7123 27.8505 53.0192 27.7073 53.1727 27.1037C53.3261 26.5001 53.2954 26.408 52.6918 26.3671C52.2724 26.3875 52.1905 26.3875 52.2212 26.7456Z" fill="#54372B"/>
<path d="M57.1012 33.4773C56.7943 33.4773 56.8147 33.8967 57.1012 34.1014C57.3876 34.306 57.4183 34.2446 57.4593 34.1014C57.5002 33.9581 57.3263 33.4773 57.1012 33.4773Z" fill="#54372B"/>
<path d="M23.2689 37.8867C22.9517 37.8867 22.9722 38.3062 23.2689 38.5108C23.5655 38.7154 23.586 38.654 23.6269 38.5108C23.6678 38.3676 23.4837 37.8867 23.2689 37.8867Z" fill="#54372B"/>
<path d="M14.3683 55.6263C13.8568 55.6263 13.5601 56.1787 13.9386 56.4242C14.3172 56.6698 14.6036 56.5163 14.7162 56.0252C14.7276 55.9749 14.7271 55.9226 14.7145 55.8726C14.7019 55.8225 14.6777 55.7761 14.6438 55.7372C14.6098 55.6983 14.5672 55.668 14.5193 55.6487C14.4715 55.6294 14.4197 55.6217 14.3683 55.6263Z" fill="#54372B"/>
<path d="M90.7289 52.2708C90.2173 52.2708 89.9104 52.8232 90.2992 53.0688C90.6879 53.3143 90.9642 53.1608 91.0767 52.68C91.0901 52.629 91.091 52.5755 91.0793 52.5241C91.0677 52.4727 91.0437 52.4248 91.0096 52.3846C90.9754 52.3445 90.932 52.3131 90.8832 52.2933C90.8343 52.2735 90.7814 52.2657 90.7289 52.2708Z" fill="#54372B"/>
<path d="M17.1919 54.9613C17.1006 54.9653 17.0137 55.0014 16.9463 55.0631C16.879 55.1248 16.8355 55.2083 16.8236 55.2989C16.8236 55.4831 16.885 55.6263 16.9975 55.6263C17.1101 55.6263 17.2737 55.4831 17.3658 55.2989C17.4579 55.1148 17.3761 54.9613 17.1919 54.9613Z" fill="#54372B"/>
<path d="M91.5575 56.1992C91.4674 56.2036 91.3818 56.24 91.3162 56.3019C91.2505 56.3638 91.2091 56.4471 91.1995 56.5368C91.1995 56.7107 91.2608 56.8642 91.3734 56.8642C91.4859 56.8642 91.6496 56.7107 91.7315 56.5368C91.8133 56.3629 91.7417 56.1992 91.5575 56.1992Z" fill="#54372B"/>
<path d="M60.3545 27.4822C60.4363 27.8096 60.4772 27.8096 61.0399 27.4822C61.6026 27.1548 61.5412 26.9093 60.9785 26.8889C60.4159 26.8684 60.2624 27.0935 60.3545 27.4822Z" fill="#54372B"/>
<path d="M38.0008 30.715C37.9549 30.7673 37.8982 30.8091 37.8346 30.8373C37.7711 30.8656 37.7021 30.8797 37.6325 30.8787C37.2745 30.8787 37.1517 30.981 37.121 31.3186C37.0903 31.6562 37.121 31.6153 37.4484 31.6665L37.9292 31.7688C38.0008 31.7688 38.0827 31.6767 38.1134 31.5437C38.144 31.4107 38.2157 31.2879 38.277 31.2879C38.3384 31.2879 38.3589 31.2265 38.3384 31.1447C38.3331 31.093 38.3406 31.0407 38.3602 30.9925C38.3798 30.9444 38.411 30.9018 38.451 30.8685C38.4867 30.8447 38.5164 30.8129 38.5377 30.7756C38.5591 30.7383 38.5714 30.6965 38.5737 30.6536C38.543 30.4797 38.144 30.5616 38.0008 30.715Z" fill="#54372B"/>
<path d="M60.2419 30.8685C59.9043 30.7866 59.8123 30.9606 59.9964 31.3391C60.0222 31.4055 60.0634 31.4648 60.1166 31.5121C60.1698 31.5595 60.2334 31.5935 60.3023 31.6115C60.3712 31.6295 60.4434 31.6309 60.5129 31.6155C60.5825 31.6002 60.6474 31.5685 60.7023 31.5232C60.8967 31.38 60.6512 30.9606 60.2419 30.8685Z" fill="#54372B"/>
<path d="M45.3872 29.5691C45.2427 29.5732 45.1014 29.5261 44.9882 29.4361C44.9519 29.4071 44.9068 29.3912 44.8604 29.3912C44.8139 29.3912 44.7688 29.4071 44.7325 29.4361C44.6097 29.5282 44.7325 29.917 44.9882 30.541C45.0496 30.6638 45.244 30.7252 45.4793 30.6945C45.7146 30.6638 45.8578 30.5819 45.7658 30.1113C45.6737 29.6407 45.6123 29.5691 45.3872 29.5691Z" fill="#54372B"/>
<path d="M92.1918 49.7028C92.0485 49.7098 91.9074 49.6663 91.7928 49.58C91.7565 49.551 91.7114 49.5352 91.6649 49.5352C91.6184 49.5352 91.5733 49.551 91.537 49.58C91.4143 49.6721 91.537 50.0609 91.7928 50.6849C91.8542 50.8077 92.0486 50.8691 92.2839 50.8384C92.5192 50.8077 92.6624 50.7259 92.5703 50.2553C92.4782 49.7847 92.4169 49.7028 92.1918 49.7028Z" fill="#54372B"/>
<path d="M48.3131 27.6664C47.8221 27.6664 47.8118 27.738 48.2211 28.3621C48.6303 28.9861 49.2441 29.0168 49.1213 28.6178C49.019 28.0449 48.6917 27.6664 48.3131 27.6664Z" fill="#54372B"/>
<path d="M45.8476 34.439C45.8575 34.489 45.8866 34.5331 45.9287 34.5618C45.9708 34.5905 46.0225 34.6015 46.0727 34.5925L46.6251 34.4595L47.0241 34.3776L46.7581 34.1219C46.2568 33.641 45.6634 33.8457 45.8476 34.439Z" fill="#54372B"/>
<path d="M23.7087 41.8969C23.7186 41.9469 23.7478 41.991 23.7899 42.0197C23.832 42.0484 23.8837 42.0594 23.9338 42.0504L24.4965 41.9174L24.8852 41.8355L24.6192 41.5798C24.1179 41.0989 23.5246 41.3035 23.7087 41.8969Z" fill="#54372B"/>
<path d="M83.6903 40.4238C83.7002 40.4737 83.7293 40.5178 83.7714 40.5465C83.8135 40.5752 83.8652 40.5862 83.9153 40.5772C83.9972 40.5772 84.2529 40.4954 84.4678 40.4442L84.8668 40.3624L84.6008 40.1066C84.0995 39.6258 83.5061 39.8304 83.6903 40.4238Z" fill="#54372B"/>
<path d="M60.3852 36.3623C60.7125 36.6794 60.8251 36.659 61.1115 36.2498C61.398 35.8405 61.2752 35.5541 60.8046 35.5541C60.334 35.5541 60.0885 36.0758 60.3852 36.3623Z" fill="#54372B"/>
<path d="M41.0598 32.137C40.5482 32.137 40.5278 32.8633 41.0598 33.6511C41.5917 34.4388 41.8884 34.5514 41.9703 33.9375C42.0521 33.3237 41.4485 32.137 41.0598 32.137Z" fill="#54372B"/>
<path d="M83.4038 43.5442C82.8923 43.5442 82.8718 44.2706 83.4038 45.0583C83.9358 45.8461 84.2325 45.9586 84.3143 45.3448C84.3962 44.7309 83.7926 43.5442 83.4038 43.5442Z" fill="#54372B"/>
<path d="M40.8551 36.802C40.6979 36.8265 40.5371 36.8014 40.3947 36.7304C40.2311 36.5463 40.0162 36.8327 40.0776 37.1703C40.0951 37.3108 40.1479 37.4445 40.231 37.5591C40.3743 37.6716 40.5073 37.6307 40.7017 37.4261C40.8138 37.319 40.951 37.2416 41.1006 37.201C41.1263 37.1973 41.151 37.1885 41.1732 37.1751C41.1954 37.1617 41.2147 37.144 41.2299 37.123C41.2452 37.102 41.2561 37.0782 41.262 37.0529C41.2679 37.0277 41.2687 37.0015 41.2643 36.9759C41.2132 36.8225 41.1518 36.7918 40.8551 36.802Z" fill="#54372B"/>
<path d="M24.8444 45.5901C24.6872 45.6159 24.5259 45.5908 24.384 45.5185C24.2101 45.3343 24.0054 45.631 24.0566 45.9584C24.0741 46.0989 24.1269 46.2326 24.2101 46.3472C24.3635 46.4597 24.4863 46.4188 24.6909 46.2244C24.796 46.1113 24.9307 46.0298 25.0797 45.9891C25.1067 45.9887 25.1332 45.982 25.1572 45.9696C25.1811 45.9572 25.2019 45.9393 25.2178 45.9175C25.2337 45.8956 25.2442 45.8704 25.2487 45.8438C25.2531 45.8171 25.2513 45.7898 25.2433 45.764C25.1615 45.6106 25.0899 45.5799 24.8444 45.5901Z" fill="#54372B"/>
<path d="M20.5475 40.3419C20.3893 40.3654 20.2277 40.3366 20.0872 40.2601C19.9235 40.0861 19.7086 40.3726 19.77 40.7C19.7807 40.8404 19.8303 40.975 19.9132 41.0887C20.0667 41.2013 20.1997 41.1706 20.3941 40.966C20.4904 40.8524 20.6135 40.7645 20.7521 40.7102C20.7791 40.7065 20.8051 40.6974 20.8286 40.6835C20.852 40.6695 20.8724 40.6511 20.8886 40.6292C20.9048 40.6072 20.9165 40.5823 20.9229 40.5558C20.9293 40.5293 20.9304 40.5018 20.9261 40.4749C20.9158 40.3521 20.8442 40.3215 20.5475 40.3419Z" fill="#54372B"/>
<path d="M74.1145 35.329C74.1145 35.6768 74.1963 35.82 74.3191 35.8712C74.5237 35.9633 74.5646 35.9633 74.7181 35.8712C74.8716 35.7791 74.5851 34.8481 74.36 34.7458C74.135 34.6435 74.0634 34.7663 74.1145 35.329Z" fill="#54372B"/>
<path d="M67.035 34.5718C67.0492 34.5122 67.0415 34.4494 67.0134 34.395C66.9852 34.3405 66.9384 34.298 66.8815 34.2751C66.636 34.1524 66.0529 34.6434 66.1552 34.8889C66.2575 35.1345 66.9225 34.7764 67.035 34.5718Z" fill="#54372B"/>
<path d="M78.1555 41.8357C78.2783 41.7027 78.2783 41.6209 78.1555 41.4674C78.0712 41.3729 77.9609 41.3053 77.8384 41.2731C77.644 41.2731 77.3269 41.7641 77.378 41.979C77.4292 42.1938 77.8998 42.1017 78.1555 41.8357Z" fill="#54372B"/>
<path d="M52.7225 35.5951C52.5997 35.5951 52.4463 35.8509 52.3747 36.1782C52.3031 36.5056 52.3747 36.7102 52.5077 36.6181C52.8453 36.3828 53.0192 35.5951 52.7225 35.5951Z" fill="#54372B"/>
<path d="M85.7773 47.9434C85.6545 47.9434 85.4908 48.2094 85.4192 48.5265C85.3476 48.8436 85.4192 49.0585 85.5624 48.9664C85.9 48.7823 86.0637 47.9434 85.7773 47.9434Z" fill="#54372B"/>
<path d="M22.8903 48.4751C22.7676 48.4751 22.6141 48.7309 22.5425 49.048C22.4709 49.3652 22.5425 49.58 22.6755 49.4879C23.0131 49.3038 23.187 48.4751 22.8903 48.4751Z" fill="#54372B"/>
<path d="M37.3665 38.6642C37.4995 38.6642 37.6018 38.48 37.5916 38.255C37.5813 38.0299 37.4688 37.8662 37.3358 37.8662C37.2028 37.8662 37.1107 38.0401 37.121 38.255C37.1312 38.4698 37.2335 38.6642 37.3665 38.6642Z" fill="#54372B"/>
<path d="M19.5347 47.8716C19.6677 47.8716 19.7598 47.6977 19.7598 47.4726C19.7598 47.2475 19.637 47.0736 19.504 47.0736C19.371 47.0736 19.2789 47.2578 19.2892 47.4726C19.2994 47.6874 19.4017 47.8716 19.5347 47.8716Z" fill="#54372B"/>
<path d="M56.4464 29.0883C56.7738 29.4771 57.1012 29.4668 57.1933 29.0883C57.2853 28.7098 56.7329 28.1983 56.4055 28.362C56.0781 28.5256 56.1497 28.72 56.4464 29.0883Z" fill="#54372B"/>
<path d="M87.0561 42.3472C87.3835 42.7462 87.7109 42.7258 87.8029 42.3472C87.895 41.9687 87.3426 41.4572 87.0152 41.6209C86.6878 41.7846 86.7594 41.9789 87.0561 42.3472Z" fill="#54372B"/>
<path d="M75.025 38.8176C75.2706 38.6846 75.1785 38.5209 74.7795 38.4083C74.7456 38.3918 74.7085 38.3827 74.6708 38.3816C74.6331 38.3805 74.5955 38.3874 74.5607 38.4019C74.5259 38.4164 74.4945 38.4382 74.4687 38.4658C74.443 38.4933 74.4233 38.5261 74.4112 38.5618C74.3396 38.6948 74.3498 38.8278 74.4112 38.8585C74.5081 38.9063 74.6158 38.9276 74.7236 38.9205C74.8314 38.9133 74.9354 38.8778 75.025 38.8176Z" fill="#54372B"/>
<path d="M91.7519 46.1019C91.9974 45.9689 91.8951 45.8052 91.5064 45.6926C91.312 45.6415 91.2199 45.6926 91.1278 45.8461C91.0357 45.9996 91.0664 46.1121 91.1278 46.1428C91.2265 46.1905 91.3359 46.2118 91.4452 46.2046C91.5546 46.1974 91.6603 46.162 91.7519 46.1019Z" fill="#54372B"/>
<path d="M70.5441 37.1499C70.5441 36.8941 70.3906 36.8839 70.0735 37.1499C69.7563 37.4159 69.92 37.9172 70.4008 37.9172C70.4929 37.9172 70.585 37.9172 70.5952 37.999C70.5952 38.1218 70.9124 38.1218 70.9737 37.999C71.0351 37.8763 70.9226 37.7944 70.7998 37.6512C70.6759 37.5068 70.5883 37.335 70.5441 37.1499Z" fill="#54372B"/>
<path d="M77.1734 37.2216C77.3166 37.4876 77.5417 37.4671 77.6645 37.1602C77.7872 36.8533 77.4189 36.4952 77.1325 36.4952C76.846 36.4952 77.0199 36.9352 77.1734 37.2216Z" fill="#54372B"/>
<path d="M30.7474 36.884C30.8935 36.7347 30.9838 36.5396 31.0031 36.3316C31.0031 36.0963 31.0031 36.086 30.7576 36.3316C30.6145 36.4842 30.5217 36.677 30.4916 36.884C30.4814 37.0784 30.5325 37.0886 30.7474 36.884Z" fill="#54372B"/>
<path d="M42.2362 26.3876C43.1877 31.2368 44.047 36.0963 44.8859 40.9661C45.8476 46.5724 46.6558 52.2912 53.7353 52.2912C60.8149 52.2912 61.6435 46.6133 62.5745 41.0377C63.3827 36.1577 64.2216 31.2982 65.1424 26.4387C64.6513 31.3596 64.1193 36.26 63.4748 41.1707C62.7075 47.309 61.4287 53.5905 53.7353 53.5803C46.042 53.57 44.7836 47.3294 43.9857 41.1502C43.3411 36.1782 42.7375 31.2778 42.2362 26.3876Z" fill="#54372B"/>
</svg>
