<svg width="107" height="107" viewBox="0 0 107 107" fill="none" xmlns="http://www.w3.org/2000/svg">
<path d="M102.757 40.0525C103.171 36.4528 103.035 32.8111 102.356 29.252C101.444 24.7632 98.9099 20.7678 95.2381 18.0296C91.5662 15.2914 87.0141 14.0024 82.4517 14.409C78.8498 14.7645 75.3226 15.6645 71.9907 17.0783C65.2326 19.9018 58.7369 25.5335 53.3983 32.6619C48.0598 39.7902 44.4648 47.6129 43.647 54.9109C43.4915 56.2576 43.4348 57.6139 43.4773 58.9688C43.5715 62.2161 44.397 65.4003 45.8922 68.2844C47.3874 71.1684 49.5139 73.6781 52.1133 75.6266C54.7128 77.5751 57.7182 78.9121 60.9059 79.5383C64.0937 80.1644 67.3816 80.0634 70.5249 79.243C71.8554 78.8857 73.1597 78.4372 74.4285 77.9006C81.2019 75.077 87.6823 69.4299 93.0208 62.3016C98.3594 55.1732 101.939 47.3506 102.757 40.0525Z" fill="#F8E4BE"/>
<path d="M98.8531 24.4692C103.004 33.0479 101.831 43.1233 97.9582 51.5631C93.7331 61.0232 86.7745 69.0028 77.9772 74.4756C74.1447 76.8236 69.7706 78.1416 65.2789 78.3021C74.0736 77.7775 81.8345 71.8372 87.5279 65.542C94.2705 58.0897 99.9485 48.5698 100.813 38.3402C101.297 33.626 100.624 28.8648 98.8531 24.4692Z" fill="#54372B"/>
<path d="M93.3448 24.3921L92.7739 24.8858C92.4036 25.2253 91.8636 25.7344 91.231 26.4288C89.5518 28.3802 88.0054 30.4421 86.6022 32.6005C85.7227 33.9274 84.6426 35.316 83.6706 36.8281C82.6703 38.4321 81.8575 40.1457 81.2482 41.9352C80.6265 43.862 80.238 45.8563 80.091 47.8755C79.906 50.0184 79.5079 52.1375 78.9029 54.2015C78.2408 56.2861 77.1592 58.2131 75.7245 59.8641C74.31 61.4171 72.7611 62.8422 71.0957 64.1226C69.5528 65.3878 68.0099 66.4832 66.4669 67.5324C65.0648 68.5269 63.6125 69.4488 62.1159 70.2943C59.8602 71.5806 57.427 72.5268 54.8949 73.1024C53.9846 73.303 53.2594 73.3956 52.7657 73.4727L51.9942 73.5499L52.7503 73.4264C53.244 73.3338 53.9692 73.195 54.8641 72.9481C57.323 72.2411 59.6744 71.203 61.8536 69.8623C63.3154 68.9687 64.7267 67.9952 66.0812 66.9461C67.6241 65.8661 69.1671 64.7089 70.71 63.4591C72.2906 62.1912 73.7615 60.7925 75.1073 59.2778C76.4436 57.7005 77.4461 55.8686 78.0544 53.8929C78.6561 51.8791 79.0642 49.8125 79.2733 47.7212C79.4387 45.621 79.8584 43.5486 80.5231 41.5495C81.1745 39.7097 82.0613 37.9619 83.1614 36.3498C84.2106 34.8069 85.2907 33.4954 86.2473 32.1839C87.7546 30.0844 89.4207 28.1037 91.231 26.259C91.8945 25.611 92.4499 25.1327 92.7739 24.8087L93.3448 24.3921Z" fill="#54372B"/>
<path d="M92.9591 22.2008C89.256 25.1169 87.2348 28.6503 84.1026 32.4922C80.9395 36.074 78.8066 40.4465 77.9309 45.1442C77.672 48.027 77.1871 50.8851 76.4806 53.692C74.7988 58.7374 69.4911 62.0547 65.3252 65.264C61.1593 68.4733 56.9625 70.9728 51.732 71.59C55.2123 69.0659 58.4649 66.2419 61.4524 63.1502C64.3863 59.6464 66.4955 55.5283 67.6241 51.0999C68.8276 47.1346 68.6271 42.7681 70.2626 38.8799C72.3147 34.0351 76.9743 30.7332 81.2482 27.6782C85.0284 25.0089 88.3303 22.7408 92.9591 22.2008Z" fill="#54372B"/>
<path d="M26.613 36.7662C22.9835 37.0472 19.4187 37.8851 16.044 39.2503C11.8124 41.0054 8.37771 44.2609 6.39874 48.3926C4.41978 52.5242 4.03585 57.241 5.3206 61.6382C6.35714 65.1009 7.91819 68.3843 9.94939 71.3741C14.0382 77.4687 20.7499 82.761 28.8349 86.6183C36.9198 90.4756 45.2362 92.4969 52.5497 91.8951C53.8991 91.7783 55.2392 91.5721 56.5613 91.2779C59.7342 90.5647 62.7051 89.1443 65.2524 87.1226C67.7997 85.1009 69.8576 82.5302 71.2727 79.6021C72.6877 76.6741 73.4234 73.4643 73.4249 70.2122C73.4263 66.9602 72.6934 63.7498 71.2809 60.8205C70.6943 59.5831 70.0242 58.3872 69.2751 57.2409C65.2017 51.1463 58.4746 45.8695 50.3742 42.0122C42.2738 38.1548 33.9265 36.149 26.613 36.7662Z" fill="#F8E4BE"/>
<path d="M12.0632 43.586C19.5773 37.9389 29.5446 37.0749 38.4936 39.1578C48.7188 41.433 58.0145 46.7533 65.1554 54.4174C68.1824 57.7335 70.3074 61.7711 71.3271 66.1437C69.1053 57.6113 61.7918 51.1464 54.5092 46.7799C45.8842 41.5957 35.4232 37.8772 25.1935 39.0653C20.5185 39.5018 16.0161 41.052 12.0632 43.586Z" fill="#54372B"/>
<path d="M13.0507 49.0172L13.6524 49.4801C14.0536 49.7732 14.6553 50.2053 15.4422 50.6836C17.6702 51.9638 19.9792 53.0977 22.3545 54.078C23.8975 54.6952 25.4404 55.4821 27.0759 56.1456C28.8416 56.8195 30.6798 57.2855 32.5533 57.5342C34.5619 57.781 36.5931 57.781 38.6016 57.5342C40.7412 57.3256 42.896 57.3256 45.0356 57.5342C47.2094 57.779 49.3099 58.4669 51.2074 59.5554C52.9925 60.6191 54.6808 61.8376 56.2527 63.1967C57.7957 64.4928 59.1843 65.8506 60.5112 67.1158C61.7732 68.2976 62.9731 69.5439 64.1062 70.8497C65.8043 72.8141 67.2029 75.0186 68.2567 77.3917C68.627 78.2557 68.8739 78.9346 69.0282 79.4284L69.2442 80.1536L68.9819 79.4284C68.7968 78.9655 68.519 78.2866 68.1024 77.4689C66.935 75.1855 65.4607 73.0727 63.7205 71.1891C62.6559 70.0165 61.4061 68.8439 60.0483 67.6095C58.6905 66.3752 57.2711 65.0791 55.7436 63.8139C54.1888 62.4791 52.5214 61.2814 50.7599 60.2343C48.9542 59.232 46.9657 58.6024 44.9122 58.3828C42.8341 58.1822 40.7415 58.1822 38.6633 58.3828C36.6137 58.6328 34.5413 58.6328 32.4916 58.3828C30.5532 58.1258 28.6587 57.6067 26.8599 56.8399C25.1473 56.0993 23.6506 55.2969 22.2311 54.6335C19.8763 53.5675 17.6112 52.3137 15.4576 50.8842C14.6862 50.3596 14.1153 49.8967 13.7296 49.5881L13.0507 49.0172Z" fill="#54372B"/>
<path d="M10.9832 49.8195C14.5628 52.9053 18.4046 54.186 22.7866 56.5158C26.9076 58.9235 31.6074 60.1611 36.3798 60.0954C39.2599 59.7948 42.159 59.7174 45.051 59.8639C50.3279 60.5583 54.6018 65.1253 58.5671 68.5815C62.5325 72.0377 65.788 75.6944 67.3927 80.6935C64.2409 77.7745 60.8443 75.1315 57.2402 72.7937C53.2338 70.5897 48.7835 69.3137 44.2179 69.0598C40.0828 68.6432 35.8398 69.6924 31.7201 68.8284C26.5668 67.7483 22.4626 63.8293 18.6052 60.2188C15.2725 57.0558 12.4027 54.2477 10.9832 49.8195Z" fill="#54372B"/>
</svg>
