<svg width="107" height="107" viewBox="0 0 107 107" fill="none" xmlns="http://www.w3.org/2000/svg">
<path d="M90.5292 28.1289V15.2551C90.5312 11.7395 89.8359 8.25842 88.4834 5.01339C87.972 3.81254 87.1159 2.79031 86.0235 2.07596C84.9311 1.3616 83.6514 0.987198 82.3462 1.0001H25.1829C23.8785 0.986765 22.5995 1.36107 21.508 2.07556C20.4166 2.79005 19.5619 3.81254 19.0523 5.01339C17.6947 8.2571 16.9971 11.7388 17 15.2551V28.1289C17 28.6473 17.2059 29.1444 17.5725 29.5109C17.939 29.8775 18.4362 30.0834 18.9545 30.0834H20.2119C19.6907 51.9415 22.8766 77.7086 23.248 80.6274L18.4008 86.3216C17.5151 87.3641 17.028 88.6869 17.0261 90.0547V95.99C17.0226 96.9745 17.2716 97.9435 17.7492 98.8045L19.1304 101.28C19.5199 101.976 20.0869 102.556 20.7736 102.961C21.4603 103.366 22.2422 103.582 23.0395 103.587H26.9029V104.499C26.9029 104.931 27.0745 105.345 27.38 105.65C27.6854 105.956 28.0997 106.127 28.5317 106.127H34.6884C35.1204 106.127 35.5347 105.956 35.8402 105.65C36.1456 105.345 36.3172 104.931 36.3172 104.499V103.619H71.2315V104.551C71.2332 104.977 71.4033 105.385 71.7047 105.687C72.0062 105.988 72.4145 106.158 72.8407 106.16H79.0236C79.4498 106.158 79.8581 105.988 80.1596 105.687C80.461 105.385 80.6311 104.977 80.6328 104.551V103.619H84.4897C85.287 103.615 86.0689 103.399 86.7556 102.994C87.4423 102.589 88.0093 102.009 88.3988 101.313L89.7799 98.837C90.2572 97.9756 90.5082 97.0073 90.5096 96.0225V90.0873C90.5072 88.7207 90.0228 87.3987 89.1415 86.3542L84.2877 80.6339C84.6591 77.7152 87.845 51.9676 87.3238 30.0899H88.5812C88.8378 30.0891 89.0918 30.0377 89.3286 29.9387C89.5655 29.8396 89.7804 29.695 89.9613 29.5129C90.1422 29.3308 90.2855 29.1148 90.3829 28.8774C90.4803 28.6399 90.53 28.3856 90.5292 28.1289ZM21.4694 30.0834H28.6359C29.5899 30.1265 30.4936 30.5237 31.1703 31.1975L34.8774 34.9046C35.3538 35.3833 35.9203 35.7628 36.5444 36.0212C37.1684 36.2795 37.8374 36.4115 38.5128 36.4096H69.0034C69.6777 36.411 70.3456 36.2787 70.9685 36.0204C71.5914 35.7621 72.1569 35.3828 72.6323 34.9046L76.3459 31.1975C77.0202 30.5242 77.9217 30.1269 78.8737 30.0834H86.0403C80.1116 60.5088 62.2081 76.7509 33.4571 80.1518H24.4793C23.9711 76.0929 21.0068 51.2248 21.4889 30.0704L21.4694 30.0834Z" fill="#F8E4BE"/>
<path d="M73.1274 58.3589C79.1278 50.4561 82.5287 41.1591 84.5484 31.5298C83.2393 36.4967 81.5401 41.3525 79.4666 46.0519C75.1471 55.603 68.391 63.9488 59.5239 69.6169C51.2498 74.9137 41.7899 77.5262 32.1606 79.1029C37.3052 78.6416 42.3881 77.6482 47.3277 76.1385C57.5564 72.8875 66.6124 66.9457 73.1274 58.3589Z" fill="#F8E4BE"/>
<path d="M20.9872 31.1777L28.7076 31.5035L20.9872 31.8292V31.1777Z" fill="#F8E4BE"/>
<path d="M21.1045 33.6729L28.8314 33.9986L21.1045 34.3244V33.6729Z" fill="#F8E4BE"/>
<path d="M21.2285 36.1685L28.9489 36.4942L21.2285 36.82V36.1685Z" fill="#F8E4BE"/>
<path d="M21.3521 38.6638L29.0724 38.9896L21.3521 39.3153V38.6638Z" fill="#F8E4BE"/>
<path d="M21.4693 41.1589L29.1897 41.4847L21.4693 41.8104V41.1589Z" fill="#F8E4BE"/>
<path d="M21.5931 43.6543L29.3135 43.9801L21.5931 44.3058V43.6543Z" fill="#F8E4BE"/>
<path d="M21.7104 46.1494L29.4373 46.4752L21.7104 46.8009V46.1494Z" fill="#F8E4BE"/>
<path d="M21.8342 48.6445L29.5546 48.9703L21.8342 49.296V48.6445Z" fill="#F8E4BE"/>
<path d="M21.9514 51.1401L29.6783 51.4659L21.9514 51.7916V51.1401Z" fill="#F8E4BE"/>
<path d="M22.0753 53.6353L29.7956 53.961L22.0753 54.2868V53.6353Z" fill="#F8E4BE"/>
<path d="M22.1925 56.1306L29.9194 56.4564L22.1925 56.7821V56.1306Z" fill="#F8E4BE"/>
<path d="M22.3163 58.6257L30.0367 58.9515L22.3163 59.2772V58.6257Z" fill="#F8E4BE"/>
<path d="M22.4401 61.1211L30.1605 61.4468L22.4401 61.7726V61.1211Z" fill="#F8E4BE"/>
<path d="M22.5576 63.6167L30.2845 63.9425L22.5576 64.2682V63.6167Z" fill="#F8E4BE"/>
<path d="M22.6812 66.1118L30.4015 66.4376L22.6812 66.7633V66.1118Z" fill="#F8E4BE"/>
<path d="M22.7984 68.6069L30.5253 68.9327L22.7984 69.2584V68.6069Z" fill="#F8E4BE"/>
<path d="M22.9222 71.1023L30.6426 71.428L22.9222 71.7538V71.1023Z" fill="#F8E4BE"/>
<path d="M23.0395 73.5974L30.7663 73.9232L23.0395 74.2489V73.5974Z" fill="#F8E4BE"/>
<path d="M23.1633 76.0925L30.8836 76.4183L23.1633 76.744V76.0925Z" fill="#F8E4BE"/>
<path d="M23.2803 78.5881L31.0072 78.9139L23.2803 79.2396V78.5881Z" fill="#F8E4BE"/>
<path d="M41.9398 36.3964V38.8721C41.9415 39.3019 42.113 39.7135 42.4168 40.0174C42.7207 40.3212 43.1323 40.4927 43.562 40.4944H43.6141L20.7397 41.9864C19.0718 42.2209 17.9252 44.7813 18.3356 47.6805C18.7461 50.5798 20.4205 52.7493 22.0883 52.5082L48.2333 47.4721C49.0301 47.8163 49.8815 48.017 50.7482 48.0649V49.4461C50.7482 49.7053 50.8511 49.9539 51.0344 50.1372C51.2177 50.3204 51.4662 50.4234 51.7254 50.4234H52.0381V51.2117C52.0381 51.2463 52.0519 51.2794 52.0763 51.3038C52.1007 51.3283 52.1339 51.342 52.1684 51.342H55.3608C55.3954 51.342 55.4285 51.3283 55.453 51.3038C55.4774 51.2794 55.4911 51.2463 55.4911 51.2117V50.4234H55.8104C56.0696 50.4234 56.3181 50.3204 56.5014 50.1372C56.6847 49.9539 56.7876 49.7053 56.7876 49.4461V48.0649C58.7253 47.9504 60.5461 47.1003 61.878 45.6884C63.21 44.2765 63.9526 42.4094 63.9542 40.4684H63.9998C64.4301 40.4684 64.8427 40.2974 65.1469 39.9932C65.4512 39.689 65.6221 39.2763 65.6221 38.8461V36.3704L41.9398 36.3964Z" fill="#F8E4BE"/>
<path d="M88.1121 87.8199L82.9 81.5393H24.6031L19.3911 87.8199C19.3593 87.857 19.3365 87.901 19.3244 87.9484C19.3123 87.9957 19.3112 88.0452 19.3213 88.0931C19.3314 88.1409 19.3523 88.1858 19.3825 88.2243C19.4126 88.2628 19.4512 88.2938 19.4953 88.315C20.9156 89.0251 27.6001 91.3836 53.7451 91.3836C79.8901 91.3836 86.5811 89.0251 88.0013 88.315C88.0459 88.2944 88.0851 88.2639 88.116 88.2257C88.1468 88.1875 88.1684 88.1427 88.1791 88.0948C88.1899 88.0469 88.1894 87.9972 88.1778 87.9495C88.1661 87.9018 88.1437 87.8574 88.1121 87.8199Z" fill="#54372B"/>
<path d="M81.2452 82.1191C81.2452 82.1191 81.61 82.4384 82.1052 82.9726C82.6003 83.5069 83.2323 84.2756 83.8251 85.0249C84.418 85.7741 84.9783 86.6145 85.3692 87.2465C85.7601 87.8785 86.0207 88.341 86.0207 88.341C86.0207 88.341 85.6494 88.0218 85.1477 87.4941C84.538 86.8418 83.9618 86.159 83.4212 85.4483C82.8283 84.6665 82.2746 83.8521 81.8837 83.2137C81.4928 82.5752 81.2452 82.1191 81.2452 82.1191Z" fill="#F8E4BE"/>
<path d="M26.284 82.1191C26.284 82.1191 25.9191 82.4384 25.424 82.9726C24.9289 83.5069 24.3034 84.2756 23.704 85.0249C23.1046 85.7741 22.5509 86.6145 22.1599 87.2465C21.9349 87.6004 21.7283 87.9657 21.541 88.341C21.541 88.341 21.9124 88.0218 22.4075 87.4941C23.0195 86.842 23.5979 86.1592 24.1405 85.4483C24.6882 84.7297 25.1992 83.9839 25.6716 83.2137C26.0625 82.5947 26.284 82.1191 26.284 82.1191Z" fill="#F8E4BE"/>
<path d="M82.5417 88.0934C82.1508 87.3767 81.597 86.4581 80.9976 85.572C80.3982 84.686 79.7532 83.8455 79.245 83.2396C78.7369 82.6337 78.3525 82.2559 78.3525 82.2559C78.3525 82.2559 78.5675 82.7771 78.9519 83.4937C79.3363 84.2104 79.89 85.1355 80.4829 86.0216C81.032 86.8282 81.6212 87.6066 82.2485 88.354C82.5301 88.6938 82.8303 89.0179 83.1476 89.3247C83.1476 89.3247 82.9326 88.81 82.5417 88.0934Z" fill="#F8E4BE"/>
<path d="M77.8378 85.722C77.3036 84.8359 76.7302 83.9824 76.2742 83.3635C75.8181 82.7446 75.4663 82.3667 75.4663 82.3667C75.6119 82.7856 75.7793 83.1967 75.968 83.598C76.358 84.4649 76.7929 85.3108 77.271 86.1324C77.7494 86.9476 78.2736 87.735 78.8411 88.4909C79.0958 88.8363 79.3698 89.1669 79.662 89.4812C79.5119 89.0642 79.3401 88.6554 79.1473 88.2563C78.8476 87.5332 78.3395 86.6145 77.8378 85.722Z" fill="#F8E4BE"/>
<path d="M74.6715 85.9239C74.2555 85.0696 73.7967 84.2368 73.2968 83.4287C73.0748 83.062 72.8334 82.7075 72.5736 82.3667C72.6861 82.8076 72.8209 83.2425 72.9776 83.6697C73.2512 84.4189 73.6291 85.3897 74.1177 86.3279C74.5318 87.1844 74.9929 88.0175 75.4989 88.8231C75.7256 89.1876 75.9714 89.5399 76.2351 89.8786C76.2351 89.8786 76.0983 89.3443 75.8181 88.5756C75.4826 87.6722 75.0999 86.7871 74.6715 85.9239Z" fill="#F8E4BE"/>
<path d="M71.5117 86.0284C71.1208 85.0838 70.6842 84.1717 70.3259 83.5071C70.1276 83.1377 69.9101 82.7789 69.6744 82.4321C69.7556 82.8717 69.86 83.3066 69.9871 83.7351C70.2538 84.6368 70.5669 85.524 70.9253 86.3933C71.2774 87.2523 71.6753 88.0918 72.1176 88.9081C72.3147 89.2803 72.5322 89.6413 72.7691 89.9896C72.6825 89.5608 72.5738 89.1367 72.4433 88.7192C72.1795 87.8068 71.8686 86.9086 71.5117 86.0284Z" fill="#F8E4BE"/>
<path d="M68.3453 86.1649C68.0573 85.3034 67.7246 84.4575 67.3485 83.6306C67.1811 83.254 66.9941 82.8865 66.7882 82.5295C66.8386 82.9525 66.9126 83.3722 67.0097 83.7869C67.4089 85.5795 67.9918 87.3261 68.7492 88.999C68.9204 89.3761 69.1118 89.7436 69.3226 90.1001C69.268 89.6752 69.1919 89.2533 69.0945 88.8361C68.8917 87.9333 68.6416 87.0416 68.3453 86.1649Z" fill="#F8E4BE"/>
<path d="M65.1855 86.2626C64.958 85.3958 64.6862 84.5412 64.3711 83.7022C64.2329 83.3225 64.0741 82.9506 63.8955 82.5881C63.9182 83.0048 63.9617 83.4202 64.0258 83.8325C64.1605 84.7272 64.341 85.6145 64.5666 86.4907C64.7901 87.3565 65.062 88.2092 65.381 89.0446C65.5205 89.4279 65.6837 89.8021 65.8696 90.1652C65.8696 90.1652 65.8696 89.657 65.7328 88.9143C65.595 88.0218 65.4124 87.1368 65.1855 86.2626Z" fill="#F8E4BE"/>
<path d="M62.0518 86.3475C61.8693 85.3963 61.6413 84.4581 61.4002 83.7415C61.2858 83.3546 61.1509 82.974 60.9963 82.6013C60.9963 82.6013 60.9963 83.103 61.0354 83.8392C61.106 84.7265 61.2235 85.6094 61.3872 86.4843C61.5548 87.3646 61.7724 88.2347 62.0387 89.0904C62.1532 89.4772 62.288 89.8578 62.4427 90.2305C62.4517 89.8175 62.4387 89.4042 62.4036 88.9926C62.3189 88.2564 62.1886 87.3313 62.0518 86.3475Z" fill="#F8E4BE"/>
<path d="M58.4229 83.8196C58.3383 83.4274 58.2317 83.0402 58.1036 82.6599C58.0673 83.065 58.0521 83.4716 58.058 83.8782C58.0653 85.6313 58.2596 87.3785 58.6379 89.0903C58.7187 89.4828 58.8232 89.8701 58.9506 90.25C58.9912 89.8452 59.0086 89.4384 59.0027 89.0317C58.9962 88.15 58.944 87.2693 58.8464 86.3931C58.7356 85.4614 58.5792 84.5167 58.4229 83.8196Z" fill="#F8E4BE"/>
<path d="M55.439 83.8521C55.383 83.4554 55.3068 83.0618 55.2109 82.6729C55.2109 82.6729 55.1262 83.155 55.0741 83.8716C55.0118 84.7388 54.9966 85.6088 55.0285 86.4777C55.0676 87.4289 55.1588 88.3801 55.2631 89.0837C55.3189 89.4809 55.3972 89.8746 55.4976 90.2629C55.5655 89.8662 55.6111 89.466 55.6344 89.0641C55.6943 88.1968 55.7073 87.3269 55.6735 86.4581C55.6416 85.5859 55.5633 84.716 55.439 83.8521Z" fill="#F8E4BE"/>
<path d="M52.3185 82.6729C52.2226 83.0618 52.1465 83.4554 52.0905 83.8521C51.9862 84.5622 51.895 85.5134 51.8559 86.4581C51.8253 87.3269 51.8384 88.1967 51.895 89.0641C51.9221 89.4659 51.97 89.8661 52.0384 90.2629C52.1343 89.8739 52.2104 89.4804 52.2664 89.0837C52.3908 88.2198 52.4691 87.3499 52.5009 86.4777C52.5315 85.6089 52.5185 84.7391 52.4618 83.8716C52.4347 83.4698 52.3869 83.0697 52.3185 82.6729Z" fill="#F8E4BE"/>
<path d="M49.1128 83.8197C48.9565 84.5168 48.7936 85.4615 48.6828 86.4258C48.5851 87.302 48.533 88.1827 48.5265 89.0644C48.5265 89.7875 48.5786 90.2827 48.5786 90.2827C48.7066 89.9024 48.8132 89.5152 48.8978 89.123C49.0868 88.2625 49.2303 87.3926 49.3278 86.517C49.4255 85.5658 49.4777 84.6081 49.4777 83.9109C49.4777 83.2138 49.4255 82.6926 49.4255 82.6926C49.3029 83.063 49.1985 83.4391 49.1128 83.8197Z" fill="#F8E4BE"/>
<path d="M46.1354 83.7674C45.6336 85.4667 45.3083 87.2133 45.1647 88.9794C45.1295 89.3911 45.1165 89.8043 45.1256 90.2173C45.2802 89.8446 45.415 89.464 45.5295 89.0771C45.738 88.3865 45.966 87.4484 46.181 86.4711C46.396 85.4939 46.4742 84.5557 46.5263 83.826C46.5614 83.4144 46.5745 83.0012 46.5654 82.5881C46.5654 82.5881 46.3439 83.0768 46.1354 83.7674Z" fill="#F8E4BE"/>
<path d="M42.3502 86.2626C42.1215 87.1367 41.9367 88.0217 41.7964 88.9143C41.6857 89.657 41.6661 90.1652 41.6661 90.1652C41.8487 89.8006 42.0118 89.4265 42.1547 89.0446C42.4713 88.209 42.741 87.3563 42.9626 86.4907C43.1933 85.6152 43.3759 84.7279 43.5099 83.8325C43.5741 83.4202 43.6176 83.0048 43.6402 82.5881C43.4608 82.9511 43.2999 83.323 43.1581 83.7022C42.8454 84.5414 42.5758 85.396 42.3502 86.2626Z" fill="#F8E4BE"/>
<path d="M39.1838 86.1649C38.8711 87.1096 38.5975 88.0804 38.4346 88.8231C38.3373 89.2403 38.2612 89.6621 38.2066 90.087C38.4173 89.7306 38.6087 89.363 38.7799 88.986C39.16 88.16 39.495 87.314 39.7832 86.4516C40.0959 85.5004 40.3631 84.5362 40.5259 83.7869C40.6888 83.0377 40.7475 82.5295 40.7475 82.5295C40.7475 82.5295 40.4934 82.953 40.1806 83.6306C39.8046 84.4575 39.4719 85.3034 39.1838 86.1649Z" fill="#F8E4BE"/>
<path d="M35.9915 86.0283C35.6071 86.9665 35.2683 87.9372 35.0468 88.6865C34.8253 89.4357 34.7275 89.9569 34.7275 89.9569C34.9657 89.6095 35.1832 89.2483 35.379 88.8754C35.8265 88.0618 36.2247 87.222 36.5713 86.3606C36.9326 85.4924 37.2458 84.605 37.5095 83.7024C37.731 82.9532 37.8287 82.3994 37.8287 82.3994C37.8287 82.3994 37.5421 82.8164 37.1772 83.4809C36.7377 84.3088 36.342 85.1591 35.9915 86.0283Z" fill="#F8E4BE"/>
<path d="M34.2324 83.4221C33.8219 84.0736 33.3203 84.9792 32.8577 85.9174C32.3951 86.8556 31.9847 87.8198 31.711 88.5756C31.4374 89.3313 31.2941 89.8786 31.2941 89.8786C31.2941 89.8786 31.6198 89.4747 32.0368 88.8231C32.4538 88.1716 32.9554 87.266 33.418 86.3279C33.8416 85.462 34.22 84.5748 34.5516 83.6697C34.8252 82.9205 34.9621 82.3667 34.9621 82.3667C34.7014 82.7061 34.4579 83.0584 34.2324 83.4221Z" fill="#F8E4BE"/>
<path d="M32.0824 82.3667C31.796 82.6848 31.5264 83.0175 31.2745 83.3635C30.8119 83.9824 30.2386 84.8359 29.7109 85.722C29.1832 86.608 28.6945 87.5397 28.3623 88.2563C28.03 88.973 27.8541 89.4812 27.8541 89.4812C28.1463 89.1669 28.4203 88.8363 28.675 88.4909C29.2403 87.7334 29.7644 86.9461 30.2451 86.1324C30.733 85.3108 31.1788 84.4649 31.5807 83.598C31.7694 83.1967 31.9368 82.7856 32.0824 82.3667Z" fill="#F8E4BE"/>
<path d="M29.1767 82.2559C29.1767 82.2559 28.7988 82.6272 28.2906 83.2396C27.7824 83.8521 27.1374 84.6925 26.5381 85.572C25.9387 86.4516 25.3784 87.3767 24.994 88.0934C24.6096 88.81 24.3816 89.3247 24.3816 89.3247C24.7001 89.0171 25.0024 88.6931 25.2872 88.354C25.9121 87.6064 26.4992 86.8279 27.0462 86.0216C27.5999 85.206 28.111 84.3622 28.5773 83.4937C28.7991 83.0921 28.9992 82.6789 29.1767 82.2559Z" fill="#F8E4BE"/>
<path d="M72.8408 105.613L80.1181 104.101V104.518C80.1181 104.808 80.0028 105.087 79.7975 105.292C79.5923 105.497 79.3139 105.613 79.0236 105.613H72.8408Z" fill="#54372B"/>
<path d="M28.5056 105.613L35.783 104.101V104.518C35.783 104.808 35.6677 105.087 35.4624 105.292C35.2571 105.497 34.9787 105.613 34.6885 105.613H28.5056Z" fill="#54372B"/>
<path d="M86.1576 29.9465C86.1576 29.9465 86.1576 30.3505 86.1576 31.0997C86.1576 31.8489 86.2032 32.95 86.2097 34.3572C86.2162 35.7645 86.2097 37.4649 86.2097 39.4194C86.2097 41.374 86.1119 43.5695 86.0077 45.9736C85.9035 48.3777 85.7536 50.9707 85.5647 53.72C85.3757 56.4694 85.1477 59.3621 84.8741 62.3525C84.6004 65.3429 84.2942 68.4376 83.9489 71.5714C83.7665 73.135 83.5841 74.7181 83.4017 76.3013C83.0433 79.2657 83.1671 79.9954 82.5156 80.0279L46.2266 80.1582H30.2061L46.2201 79.9563C90.8614 79.5719 79.5252 79.6696 82.5026 79.65C82.5332 79.6485 82.5621 79.6356 82.5838 79.614C82.6054 79.5923 82.6183 79.5634 82.6199 79.5328C82.7632 78.4382 82.685 79.0637 83.0368 76.2752C83.2323 74.6943 83.4234 73.1198 83.6102 71.5518C83.975 68.4181 84.3008 65.3364 84.5809 62.346C84.8611 59.3556 85.1086 56.4824 85.3171 53.72C85.5256 50.9577 85.6754 48.3777 85.7992 45.9801C85.923 43.5826 86.0142 41.3805 86.0663 39.4325C86.1185 37.4845 86.1445 35.784 86.1771 34.3833C86.2097 32.9826 86.1771 31.875 86.1771 31.1258C86.1771 30.3765 86.1576 29.9465 86.1576 29.9465Z" fill="#54372B"/>
<path d="M24.3751 46.8403C24.63 48.2942 24.4298 49.7914 23.8017 51.1272C24.4162 50.2926 24.7349 49.277 24.7073 48.241C24.7734 46.9063 24.5512 45.5731 24.0558 44.332C23.7142 43.363 23.0759 42.5263 22.2316 41.9409L20.7462 42.0387C22.4075 41.7715 23.9646 43.9476 24.3751 46.8403Z" fill="#54372B"/>
<path d="M63.9216 40.4944H57.9408L63.9021 40.8853C63.9086 40.755 63.9216 40.6247 63.9216 40.4944Z" fill="#54372B"/>
<path d="M62.9313 41.5042C62.8745 42.3157 62.6549 43.1074 62.2856 43.8323C61.9162 44.5571 61.4047 45.2001 60.7815 45.723C60.1583 46.2458 59.4362 46.6379 58.6582 46.8757C57.8803 47.1135 57.0624 47.1922 56.2534 47.1071C57.8267 46.9073 59.3134 46.2734 60.5468 45.2764C61.6585 44.2497 62.4808 42.9488 62.9313 41.5042Z" fill="#54372B"/>
<path d="M65.5894 36.9894V36.3965H51.6797L65.5894 36.9894Z" fill="#54372B"/>
<path d="M87.0892 6.15991C87.0892 6.15991 87.3107 6.57035 87.656 7.37171C88.1367 8.54277 88.5012 9.75825 88.7441 11.0006C88.9163 11.8856 89.0381 12.7796 89.1089 13.6783C89.1936 14.6621 89.1871 15.7306 89.1936 16.8577C89.1936 19.1184 89.1936 21.6658 89.1936 24.4542C89.1936 25.1448 89.1936 25.855 89.1936 26.5782V27.1254C89.2157 27.344 89.1981 27.5647 89.1415 27.7769C89.0992 27.8945 89.0319 28.0014 88.9441 28.0903C88.8564 28.1792 88.7503 28.2479 88.6333 28.2916C88.5209 28.333 88.4011 28.3507 88.2815 28.3437H88.0013H83.3561H80.9455C80.134 28.3126 79.3213 28.3474 78.5154 28.448C77.7137 28.5913 76.9492 28.8948 76.2677 29.3406C75.9241 29.5698 75.6034 29.8316 75.31 30.1224L74.3848 31.0345L72.515 32.8783L71.5638 33.8164C71.2126 34.1558 70.7895 34.4119 70.3259 34.5657C69.8654 34.7013 69.3849 34.7564 68.9056 34.7285H64.8402L53.7646 34.7611L42.689 34.7285H38.5975C38.1204 34.7564 37.642 34.7013 37.1837 34.5657C36.7178 34.4128 36.2925 34.1566 35.9393 33.8164L34.9947 32.8783L33.1183 31.0345C32.5442 30.413 31.9139 29.846 31.2355 29.3406C30.5563 28.8949 29.7939 28.5912 28.9943 28.448C28.1862 28.3474 27.3713 28.3126 26.5576 28.3437H24.1471H19.5018C19.2833 28.3644 19.0628 28.3467 18.8503 28.2916C18.7333 28.2479 18.6272 28.1792 18.5395 28.0903C18.4517 28.0014 18.3844 27.8945 18.3421 27.7769C18.3036 27.666 18.2859 27.549 18.29 27.4316V26.6107C18.29 25.8876 18.29 25.1774 18.29 24.4868C18.29 21.6984 18.29 19.151 18.29 16.8902C18.29 15.7631 18.29 14.6947 18.3682 13.7109C18.441 12.812 18.565 11.918 18.7395 11.0332C18.9824 9.79084 19.3469 8.57536 19.8276 7.40429C20.1663 6.60294 20.3879 6.19248 20.3879 6.19248L20.2836 6.51823C20.212 6.72672 20.1077 7.04596 19.9774 7.46293C19.6038 8.65353 19.3014 9.86531 19.0718 11.0918C18.9074 11.9664 18.7921 12.8495 18.7265 13.737C18.6483 14.7077 18.6614 15.7566 18.6614 16.8902C18.6614 19.151 18.6614 21.6984 18.6614 24.4868C18.6614 25.1774 18.6614 25.8876 18.6614 26.6107V27.3925C18.6496 27.4572 18.6496 27.5234 18.6614 27.588C18.6816 27.6461 18.7152 27.6987 18.7593 27.7417C18.8033 27.7847 18.8568 27.8168 18.9155 27.8356C19.0729 27.8618 19.2336 27.8618 19.3911 27.8356H24.0363H26.4599C27.3016 27.7978 28.145 27.8304 28.9812 27.9333C29.8517 28.0815 30.6829 28.4052 31.4244 28.8845C31.7937 29.1337 32.1404 29.4149 32.4603 29.7249L33.5027 30.6501C34.1542 31.2625 34.7536 31.8684 35.3856 32.4873L36.3368 33.4125C36.6277 33.6938 36.9801 33.9034 37.3662 34.0249C37.7692 34.1455 38.1912 34.1897 38.6105 34.1552H39.9657H42.6955H53.7711H64.8468H67.5701H68.9252C69.3445 34.1905 69.7667 34.1463 70.1696 34.0249C70.5579 33.9044 70.9127 33.6946 71.2055 33.4125L72.1567 32.4873L74.0395 30.6501L74.9712 29.7445C75.2898 29.4329 75.6365 29.1516 76.0071 28.9041C76.7479 28.4234 77.5794 28.0997 78.4502 27.9528C79.2843 27.85 80.1255 27.8173 80.9651 27.8551H83.3887H88.0339C88.1938 27.8779 88.3561 27.8779 88.516 27.8551C88.5732 27.8351 88.6252 27.8024 88.668 27.7596C88.7109 27.7167 88.7436 27.6647 88.7636 27.6075C88.798 27.4537 88.809 27.2956 88.7962 27.1385V26.5912C88.7962 25.868 88.7962 25.1579 88.7962 24.4673C88.7962 21.6788 88.7962 19.1314 88.7962 16.8707C88.7962 15.7371 88.7962 14.6882 88.7375 13.7174C88.6719 12.8299 88.5566 11.9469 88.3922 11.0723C88.161 9.84551 87.8564 8.63369 87.4801 7.44338C87.3498 7.02642 87.2521 6.70717 87.1739 6.49869L87.0892 6.15991Z" fill="#54372B"/>
<path d="M88.3923 98.0224C88.3923 98.0224 88.301 98.296 88.086 98.7912C87.7789 99.5123 87.4219 100.211 87.0176 100.882C86.7471 101.262 86.3948 101.577 85.9866 101.802C85.5784 102.028 85.1247 102.159 84.6591 102.186C84.3073 102.186 84.0076 102.186 83.6362 102.186H78.9454C72.0785 102.231 62.9248 102.186 53.7646 102.186C44.6044 102.186 35.4507 102.186 28.5838 102.186H23.8995C23.5477 102.186 23.248 102.186 22.8831 102.186C22.5428 102.169 22.2078 102.094 21.8928 101.964C21.3388 101.742 20.8611 101.364 20.5182 100.876C20.1123 100.204 19.7531 99.5056 19.4432 98.7846C19.2347 98.2895 19.137 98.0159 19.137 98.0159C19.137 98.0159 19.3194 98.2374 19.6321 98.6674C19.9448 99.0974 20.3618 99.801 20.8569 100.622C21.1565 101.041 21.5705 101.364 22.0492 101.554C22.3204 101.658 22.6061 101.719 22.8962 101.736H23.8995H28.5838C35.4507 101.69 44.6109 101.736 53.7646 101.736C62.9183 101.736 72.0785 101.736 78.9454 101.736H83.6362H84.633C84.9232 101.72 85.209 101.659 85.48 101.554C85.9587 101.364 86.3727 101.041 86.6723 100.622C87.1739 99.801 87.5909 99.0974 87.8971 98.6674C88.2033 98.2374 88.3923 98.0224 88.3923 98.0224Z" fill="#54372B"/>
<path d="M23.0527 2.44639L32.6494 2.29656L42.4872 2.21836L53.7648 2.18579L65.0424 2.21836L74.8867 2.29656L84.4834 2.44639L74.8867 2.58972L65.0424 2.67442L53.7648 2.70699L42.5068 2.6679L32.669 2.58972L23.0527 2.44639Z" fill="#54372B"/>
<path d="M88.7636 89.7483L88.5812 89.8395C88.4074 89.927 88.229 90.0053 88.047 90.074C87.3503 90.3536 86.6365 90.5886 85.91 90.7777C84.9784 91.0253 83.8317 91.2793 82.5092 91.5139C81.1866 91.7484 79.6816 91.9765 78.0333 92.1654C76.385 92.3543 74.5998 92.5237 72.7105 92.6801L69.7982 92.882L66.7557 93.0319C64.6839 93.1101 62.547 93.1882 60.3774 93.2273C58.2079 93.2664 55.9993 93.286 53.7907 93.3055C51.5821 93.3251 49.3865 93.3055 47.2105 93.2273C45.0344 93.1492 42.8975 93.1101 40.8322 93.0319L37.7897 92.882L34.8774 92.6801C32.9815 92.5302 31.1964 92.3543 29.5546 92.1654C27.9128 91.9765 26.4013 91.7549 25.0787 91.5139C23.7562 91.2728 22.6095 91.0253 21.6714 90.7777C20.9481 90.5874 20.2367 90.3546 19.5409 90.0806C19.2999 89.9828 19.1174 89.8981 19.0002 89.8395L18.8177 89.7483L19.0067 89.8265C19.1833 89.9121 19.3663 89.984 19.554 90.0415C20.2577 90.2884 20.9757 90.4929 21.7039 90.6539C22.6421 90.8689 23.7888 91.0839 25.1178 91.3054C26.4469 91.5269 27.9519 91.6637 29.5937 91.8331C31.2355 92.0025 33.0206 92.1263 34.91 92.2371C36.7994 92.3478 38.819 92.4195 40.8517 92.5042C42.8844 92.5889 45.0475 92.628 47.217 92.654C49.3865 92.6801 51.5951 92.654 53.7907 92.6931C55.9863 92.7322 58.2014 92.6931 60.3644 92.654C62.5274 92.6149 64.6709 92.5693 66.7296 92.5042L69.7722 92.3804L72.6779 92.2371C74.5673 92.1263 76.3524 91.9895 77.9942 91.8331C79.636 91.6768 81.141 91.5009 82.4701 91.3054C83.7991 91.11 84.9458 90.895 85.884 90.6539C86.612 90.492 87.3299 90.2875 88.0339 90.0415C88.2208 89.9817 88.4036 89.9098 88.5812 89.8265L88.7636 89.7483Z" fill="#54372B"/>
<path d="M23.9062 43.1852C23.9062 43.1852 25.4373 42.9702 27.7436 42.7161C28.8903 42.6054 30.2324 42.4425 31.6527 42.3122L36.1676 41.9083L40.6891 41.5695C42.1289 41.4587 43.4841 41.3936 44.6372 41.3219C46.9501 41.1916 48.4942 41.146 48.4942 41.146C48.4942 41.146 46.9631 41.361 44.6633 41.6151C43.5101 41.7324 42.168 41.8887 40.7542 42.019L36.2328 42.423L31.7113 42.7617C30.2715 42.8725 28.9229 42.9377 27.7632 43.0093C25.4503 43.1396 23.9062 43.1852 23.9062 43.1852Z" fill="#54372B"/>
<path d="M59.7845 14.2778C58.392 12.8867 56.5602 12.0215 54.6013 11.8294C52.6423 11.6374 50.6774 12.1304 49.0412 13.2246C47.405 14.3188 46.1988 15.9464 45.628 17.8301C45.0572 19.7139 45.1572 21.7373 45.9109 23.5556C46.6646 25.3739 48.0254 26.8747 49.7614 27.8022C51.4975 28.7298 53.5015 29.0267 55.432 28.6425C57.3624 28.2583 59.1 27.2167 60.3486 25.6951C61.5972 24.1735 62.2797 22.2661 62.2798 20.2978C62.2791 18.0396 61.3816 15.8742 59.7845 14.2778ZM48.2072 14.7404C49.6016 13.3476 51.4681 12.5292 53.4372 12.4471C55.4063 12.3651 57.3344 13.0254 58.8398 14.2974L47.7642 25.373C46.4899 23.8691 45.8275 21.9411 45.9084 19.9716C45.9893 18.002 46.8075 16.1348 48.2007 14.7404H48.2072ZM59.3284 25.8551C57.9329 27.2488 56.0646 28.0672 54.094 28.1481C52.1234 28.2289 50.1943 27.5663 48.6893 26.2916L59.765 15.216C61.0392 16.72 61.7016 18.6479 61.6207 20.6174C61.5399 22.587 60.7217 24.4542 59.3284 25.8486V25.8551Z" fill="#54372B"/>
<path d="M50.9761 21.2814L52.8655 19.4181L54.7288 17.5287L56.3315 15.8609C57.2697 14.8771 57.8756 14.2061 57.8756 14.2061C57.8756 14.2061 57.2241 14.8119 56.2142 15.7436L54.5464 17.3528L52.657 19.2162L50.7937 21.1055L49.191 22.7734C48.2528 23.7572 47.6469 24.4282 47.6469 24.4282C47.6469 24.4282 48.2984 23.8223 49.3083 22.8906L50.9761 21.2814Z" fill="#54372B"/>
<path d="M58.2011 17.7046L56.5333 19.3073L54.6439 21.1706L52.7806 23.06L51.1714 24.7343C50.2397 25.7116 49.6338 26.3892 49.6338 26.3892C49.6338 26.3892 50.2853 25.7833 51.2886 24.8451L52.9304 23.2424L54.8198 21.3791L56.6831 19.4897L58.2923 17.8218C59.224 16.8381 59.8299 16.167 59.8299 16.167C59.8299 16.167 59.1849 16.7729 58.2011 17.7046Z" fill="#54372B"/>
<path d="M63.8108 14.0821C61.3872 10.8962 57.8691 8.79837 53.7776 8.79837C49.6861 8.79837 46.155 10.8897 43.7183 14.0821C44.7094 12.2853 46.1642 10.7872 47.9312 9.74382C49.6981 8.70049 51.7126 8.15015 53.7646 8.15015C55.8166 8.15015 57.831 8.70049 59.598 9.74382C61.365 10.7872 62.8198 12.2853 63.8108 14.0821Z" fill="#54372B"/>
<path d="M83.6297 10.7141H68.658C68.1903 10.7141 67.8111 11.0933 67.8111 11.5611V18.5452C67.8111 19.013 68.1903 19.3922 68.658 19.3922H83.6297C84.0974 19.3922 84.4766 19.013 84.4766 18.5452V11.5611C84.4766 11.0933 84.0974 10.7141 83.6297 10.7141Z" fill="#54372B"/>
<path d="M83.8382 11.5479V18.5581C83.839 18.5834 83.8348 18.6087 83.8257 18.6324C83.8166 18.6561 83.8028 18.6777 83.7852 18.6959C83.7676 18.7141 83.7464 18.7287 83.7231 18.7386C83.6997 18.7485 83.6746 18.7535 83.6492 18.7535H68.6646C75.6422 17.4831 81.1279 15.3266 83.8382 11.5479Z" fill="#F8E4BE"/>
<path d="M70.0849 22.6757C70.0849 22.8873 70.022 23.0941 69.9044 23.27C69.7867 23.4458 69.6194 23.5827 69.4238 23.6634C69.2282 23.7441 69.013 23.7649 68.8056 23.7231C68.5981 23.6813 68.4077 23.5789 68.2586 23.4289C68.1094 23.2788 68.0082 23.0878 67.9677 22.8801C67.9272 22.6724 67.9493 22.4574 68.0312 22.2622C68.113 22.0671 68.251 21.9007 68.4276 21.7841C68.6041 21.6675 68.8113 21.6059 69.0229 21.6072C69.1629 21.6072 69.3016 21.6349 69.4308 21.6887C69.5601 21.7424 69.6775 21.8212 69.7762 21.9205C69.8749 22.0198 69.9529 22.1377 70.0059 22.2673C70.0589 22.3969 70.0857 22.5357 70.0849 22.6757Z" fill="#54372B"/>
<path d="M72.5801 23.7374C73.1666 23.7374 73.6421 23.262 73.6421 22.6755C73.6421 22.089 73.1666 21.6135 72.5801 21.6135C71.9936 21.6135 71.5182 22.089 71.5182 22.6755C71.5182 23.262 71.9936 23.7374 72.5801 23.7374Z" fill="#54372B"/>
<path d="M76.1439 23.7374C76.7304 23.7374 77.2059 23.262 77.2059 22.6755C77.2059 22.089 76.7304 21.6135 76.1439 21.6135C75.5574 21.6135 75.0819 22.089 75.0819 22.6755C75.0819 23.262 75.5574 23.7374 76.1439 23.7374Z" fill="#54372B"/>
<path d="M79.7076 23.7374C80.2941 23.7374 80.7696 23.262 80.7696 22.6755C80.7696 22.089 80.2941 21.6135 79.7076 21.6135C79.1211 21.6135 78.6457 22.089 78.6457 22.6755C78.6457 23.262 79.1211 23.7374 79.7076 23.7374Z" fill="#54372B"/>
<path d="M83.2779 23.7374C83.8644 23.7374 84.3399 23.262 84.3399 22.6755C84.3399 22.089 83.8644 21.6135 83.2779 21.6135C82.6914 21.6135 82.2159 22.089 82.2159 22.6755C82.2159 23.262 82.6914 23.7374 83.2779 23.7374Z" fill="#54372B"/>
<path d="M27.6782 12.1995H30.8315C31.0475 12.1995 31.2546 12.2853 31.4074 12.438C31.5601 12.5907 31.6459 12.7979 31.6459 13.0138V21.4378C31.6459 21.6538 31.5601 21.861 31.4074 22.0137C31.2546 22.1664 31.0475 22.2522 30.8315 22.2522H27.6782C27.4622 22.2522 27.2551 22.1664 27.1024 22.0137C26.9496 21.861 26.8638 21.6538 26.8638 21.4378V13.0138C26.8655 12.7984 26.9519 12.5922 27.1042 12.4399C27.2566 12.2875 27.4628 12.2012 27.6782 12.1995Z" fill="#54372B"/>
<path d="M30.8315 12.8379H27.6782C27.581 12.8379 27.5023 12.9166 27.5023 13.0138V21.4378C27.5023 21.5349 27.581 21.6137 27.6782 21.6137H30.8315C30.9286 21.6137 31.0074 21.5349 31.0074 21.4378V13.0138C31.0074 12.9166 30.9286 12.8379 30.8315 12.8379Z" fill="#F8E4BE"/>
<path d="M27.8213 21.2943C29.4957 20.7992 30.3817 19.0792 30.6879 16.4536V21.2943H27.8213Z" fill="#54372B"/>
<path d="M29.2549 14.3168C29.4348 14.3168 29.5806 14.1709 29.5806 13.991C29.5806 13.8111 29.4348 13.6653 29.2549 13.6653C29.075 13.6653 28.9291 13.8111 28.9291 13.991C28.9291 14.1709 29.075 14.3168 29.2549 14.3168Z" fill="#54372B"/>
<path d="M34.8383 14.3234C35.0483 14.3234 35.2536 14.2611 35.4283 14.1444C35.6029 14.0277 35.739 13.8619 35.8194 13.6678C35.8998 13.4738 35.9208 13.2602 35.8798 13.0542C35.8388 12.8482 35.7377 12.659 35.5892 12.5105C35.4407 12.362 35.2514 12.2608 35.0454 12.2199C34.8394 12.1789 34.6259 12.1999 34.4319 12.2803C34.2378 12.3607 34.072 12.4968 33.9553 12.6714C33.8386 12.8461 33.7763 13.0514 33.7763 13.2614C33.7763 13.5431 33.8882 13.8132 34.0873 14.0123C34.2865 14.2115 34.5566 14.3234 34.8383 14.3234Z" fill="#54372B"/>
<path d="M34.8383 16.1604C34.6267 16.1591 34.4195 16.2207 34.2429 16.3373C34.0664 16.4539 33.9284 16.6203 33.8465 16.8155C33.7647 17.0106 33.7426 17.2256 33.783 17.4333C33.8235 17.641 33.9248 17.832 34.0739 17.9821C34.2231 18.1322 34.4135 18.2346 34.6209 18.2763C34.8284 18.3181 35.0435 18.2973 35.2391 18.2166C35.4348 18.136 35.602 17.999 35.7197 17.8232C35.8374 17.6473 35.9002 17.4405 35.9003 17.2289C35.9011 17.0889 35.8743 16.9501 35.8213 16.8205C35.7683 16.6909 35.6902 16.5731 35.5915 16.4737C35.4928 16.3744 35.3755 16.2957 35.2462 16.2419C35.1169 16.1881 34.9783 16.1604 34.8383 16.1604Z" fill="#54372B"/>
<path d="M34.8383 20.1282C34.6264 20.1269 34.4189 20.1886 34.2422 20.3055C34.0655 20.4225 33.9276 20.5892 33.8459 20.7848C33.7642 20.9803 33.7425 21.1956 33.7835 21.4035C33.8245 21.6114 33.9264 21.8023 34.0763 21.9522C34.2261 22.102 34.4171 22.2039 34.6249 22.2449C34.8328 22.2859 35.0482 22.2642 35.2437 22.1825C35.4392 22.1009 35.606 21.9629 35.7229 21.7862C35.8398 21.6095 35.9015 21.402 35.9002 21.1902C35.9002 20.9085 35.7883 20.6384 35.5892 20.4392C35.39 20.2401 35.1199 20.1282 34.8383 20.1282Z" fill="#54372B"/>
<path d="M49.1389 97.2083C49.1052 97.2865 49.0565 97.3574 48.9955 97.4168C49.0574 97.4769 49.1081 97.5475 49.1454 97.6253C49.1817 97.7051 49.2006 97.7917 49.2006 97.8794C49.2006 97.9671 49.1817 98.0537 49.1454 98.1335C49.0967 98.2259 49.0276 98.3061 48.9434 98.368C48.8578 98.4366 48.7608 98.4895 48.6567 98.5244C48.544 98.5649 48.4248 98.5848 48.3049 98.583H46.6892V97.697H46.4156V97.1432H46.7022V96.2506H48.2984C48.5336 96.2394 48.765 96.3134 48.9499 96.4591C49.0312 96.5185 49.0976 96.5958 49.1439 96.6851C49.1902 96.7744 49.2153 96.8732 49.217 96.9738C49.2079 97.0566 49.1813 97.1366 49.1389 97.2083ZM48.4352 96.8565C48.3929 96.8223 48.3399 96.8039 48.2854 96.8044H47.3798V97.1432H48.2854C48.3399 97.1438 48.3929 97.1253 48.4352 97.0911C48.4541 97.0779 48.4694 97.0603 48.48 97.0399C48.4906 97.0195 48.4962 96.9968 48.4962 96.9738C48.4962 96.9508 48.4906 96.9281 48.48 96.9077C48.4694 96.8873 48.4541 96.8698 48.4352 96.8565ZM48.4352 97.7426C48.3922 97.7102 48.3392 97.694 48.2854 97.697H47.3798V98.0293H48.2854C48.3399 98.0298 48.3929 98.0114 48.4352 97.9771C48.4541 97.9639 48.4694 97.9463 48.48 97.9259C48.4906 97.9055 48.4962 97.8829 48.4962 97.8599C48.4962 97.8369 48.4906 97.8142 48.48 97.7938C48.4694 97.7734 48.4541 97.7558 48.4352 97.7426Z" fill="#54372B"/>
<path d="M52.2792 97.5991C52.2024 97.7251 52.1003 97.8338 51.9795 97.9184C52.0651 98.0109 52.1354 98.1165 52.188 98.2311C52.2341 98.3427 52.2584 98.4621 52.2596 98.5829H51.569C51.5707 98.5 51.5481 98.4185 51.5039 98.3484C51.4567 98.2696 51.3921 98.2027 51.3149 98.1529H50.5136V98.5764H49.823V98.1529H49.3604V97.5991H49.823V96.244H51.1912C51.4976 96.2348 51.7975 96.334 52.0381 96.5241C52.1426 96.5987 52.2286 96.6961 52.2896 96.8091C52.3506 96.922 52.3849 97.0474 52.3899 97.1756C52.3893 97.3239 52.3512 97.4696 52.2792 97.5991ZM51.543 96.9476C51.4399 96.8697 51.3138 96.8284 51.1846 96.8303H50.5331V97.6317H51.1846C51.3138 97.6336 51.4399 97.5924 51.543 97.5144C51.5882 97.4818 51.6249 97.4387 51.6499 97.3887C51.6749 97.3388 51.6874 97.2836 51.6863 97.2278C51.6908 97.1694 51.6806 97.1108 51.6567 97.0573C51.6328 97.0039 51.596 96.9572 51.5495 96.9216L51.543 96.9476Z" fill="#54372B"/>
<path d="M54.5464 98.5829V98.1594H53.5821V98.5829H52.885V98.1594H52.5853V97.6056H52.885V97.1365C52.8867 97.0083 52.919 96.8823 52.979 96.7691C53.039 96.6558 53.1252 96.5584 53.2303 96.485C53.4656 96.3016 53.754 96.1993 54.0523 96.1934C54.3506 96.1875 54.6428 96.2784 54.8851 96.4524C54.9892 96.5269 55.0745 96.6245 55.1344 96.7376C55.1943 96.8506 55.2272 96.976 55.2304 97.1039V98.5503L54.5464 98.5829ZM54.5464 97.4883V97.1365C54.5456 97.0835 54.5329 97.0314 54.5093 96.984C54.4856 96.9367 54.4515 96.8953 54.4095 96.8629C54.3115 96.785 54.1895 96.7435 54.0642 96.7456C53.9389 96.7424 53.8165 96.784 53.7189 96.8629C53.6762 96.8949 53.6411 96.9361 53.6163 96.9835C53.5915 97.0308 53.5776 97.0831 53.5756 97.1365V97.6056H54.5464V97.4883Z" fill="#54372B"/>
<path d="M57.5498 98.5827V96.8041H56.7745C56.6171 96.8017 56.4634 96.8522 56.338 96.9474C56.2821 96.9861 56.2364 97.0377 56.2046 97.0978C56.1729 97.1579 56.1561 97.2248 56.1556 97.2927V98.5957H55.4585V96.2633H56.1882V96.3871C56.2823 96.3461 56.3806 96.3155 56.4814 96.2959C56.5887 96.2748 56.6977 96.2639 56.8071 96.2633H57.6215C57.7881 96.26 57.9511 96.3128 58.0841 96.4132C58.1417 96.4567 58.1886 96.5127 58.2214 96.5771C58.2541 96.6414 58.2718 96.7124 58.273 96.7846V98.5957L57.5498 98.5827Z" fill="#54372B"/>
<path d="M60.8921 98.4071C60.7612 98.5122 60.5974 98.5676 60.4295 98.5634H58.475V96.231H60.4295C60.5966 96.2244 60.7606 96.2775 60.8921 96.3809C60.9506 96.425 60.9981 96.4821 61.0308 96.5477C61.0636 96.6132 61.0808 96.6855 61.081 96.7587V98.0618C61.076 98.1295 61.0566 98.1953 61.024 98.2549C60.9914 98.3144 60.9464 98.3663 60.8921 98.4071ZM60.3904 96.7848H59.1721V98.0096H60.3904V96.7848Z" fill="#54372B"/>
</svg>
