<svg width="107" height="107" viewBox="0 0 107 107" fill="none" xmlns="http://www.w3.org/2000/svg">
<path d="M82.9159 11.9472H82.0035C81.7769 11.9432 81.557 11.8692 81.374 11.7354C81.191 11.6016 81.0538 11.4145 80.9813 11.1997L79.2775 6.07742C78.9424 5.30026 78.387 4.6383 77.6798 4.17337C76.9726 3.70843 76.1447 3.46088 75.2984 3.4613H30.7696C29.9233 3.46708 29.0966 3.71699 28.3888 4.18105C27.6811 4.6451 27.1222 5.30358 26.7795 6.07742L25.0867 11.1997C25.0142 11.4145 24.8771 11.6016 24.694 11.7354C24.511 11.8692 24.2911 11.9432 24.0644 11.9472H23.1521C22.4699 11.9472 21.8157 12.2182 21.3333 12.7005C20.851 13.1829 20.58 13.8371 20.58 14.5193C20.58 15.2015 20.851 15.8557 21.3333 16.3381C21.8157 16.8205 22.4699 17.0914 23.1521 17.0914H23.8556C24.129 17.0901 24.3932 17.1907 24.5964 17.3736C24.7997 17.5566 24.9275 17.8087 24.9548 18.0808L32.4514 98.6195C32.4514 98.6195 32.4514 104.039 53.0285 104.039C73.6056 104.039 73.6386 98.6195 73.6386 98.6195L81.1352 18.0808C81.1625 17.8087 81.2903 17.5566 81.4935 17.3736C81.6968 17.1907 81.9609 17.0901 82.2344 17.0914H82.9379C83.62 17.0914 84.2743 16.8205 84.7566 16.3381C85.239 15.8557 85.51 15.2015 85.51 14.5193C85.51 13.8371 85.239 13.1829 84.7566 12.7005C84.2743 12.2182 83.62 11.9472 82.9379 11.9472H82.9159Z" fill="#F8E4BE"/>
<path d="M30.1211 38.2621L33.2758 72.2495C46.4365 73.5033 59.6865 73.5033 72.8472 72.2495L75.9909 38.2621C60.7664 40.2626 45.3456 40.2626 30.1211 38.2621Z" fill="#54372B"/>
<path d="M70.7147 18.1356L66.8345 18.3005C65.4605 18.3554 63.9986 18.3884 62.4926 18.4324C59.4808 18.5093 56.2711 18.5533 53.0505 18.5533C49.8298 18.5533 46.6201 18.5533 43.6083 18.4324C42.1134 18.4324 40.6514 18.3554 39.2774 18.3005L35.3863 18.1356C32.99 18.0147 30.9894 17.9158 29.5934 17.8168L27.395 17.6849L29.5934 17.8608C30.9784 17.9817 32.968 18.1466 35.3753 18.2785L39.2555 18.4983L43.6523 18.6742C46.6751 18.7622 49.8958 18.8171 53.1164 18.8281C56.3371 18.8391 59.5688 18.7622 62.5916 18.6742C65.6144 18.5863 68.4174 18.4324 70.8136 18.2785C73.2099 18.1246 75.2105 17.9817 76.5955 17.8608L78.7939 17.6849L76.5955 17.8168C75.1225 17.9158 73.122 18.0147 70.7147 18.1356Z" fill="#54372B"/>
<path d="M35.3972 11.3977C40.2118 11.6065 46.6311 11.7824 53.0505 11.8044C59.4698 11.8264 65.9002 11.6065 70.7147 11.3977C73.122 11.2988 75.1115 11.1778 76.5185 11.0899L78.7169 10.958C78.7169 10.958 75.5182 11.1119 70.7037 11.2768C65.8892 11.4417 59.4698 11.5845 53.0505 11.5626C46.6311 11.5406 40.2118 11.4527 35.4632 11.2768C30.7146 11.1009 27.45 10.958 27.45 10.958L29.6484 11.0899C30.9895 11.1778 32.968 11.2988 35.3972 11.3977Z" fill="#54372B"/>
<path d="M59.5798 48.8255C58.9604 47.7545 58.1779 46.7866 57.2604 45.9566C56.1003 44.9214 54.5999 44.3492 53.045 44.3492C51.4902 44.3492 49.9897 44.9214 48.8295 45.9566C47.9248 46.7886 47.1503 47.7521 46.5322 48.8145C45.2927 51.3098 44.6477 54.0581 44.6477 56.8442C44.6477 59.6304 45.2927 62.3787 46.5322 64.8739C46.7696 65.2559 47.0302 65.623 47.3126 65.9731C47.9978 66.8422 48.8711 67.5446 49.8668 68.0275C50.8625 68.5104 51.9548 68.7613 53.0615 68.7613C54.1681 68.7613 55.2604 68.5104 56.2561 68.0275C57.2519 67.5446 58.1252 66.8422 58.8103 65.9731C59.095 65.6222 59.3592 65.2552 59.6018 64.8739C60.8413 62.3787 61.4863 59.6304 61.4863 56.8442C61.4863 54.0581 60.8413 51.3098 59.6018 48.8145L59.5798 48.8255Z" fill="#F8E4BE"/>
<path d="M55.3478 45.3739C56.6894 46.1477 57.849 47.2009 58.7479 48.4621C59.6469 49.7233 60.2642 51.163 60.5581 52.6836C61.4164 56.2222 61.1552 59.94 59.8106 63.3239C59.2371 64.7033 58.3216 65.9139 57.1505 66.8414C59.4259 64.9398 60.3272 61.774 60.602 58.9381C61.0893 55.3892 60.3981 51.7785 58.6345 48.6605C57.8125 47.3218 56.6865 46.1959 55.3478 45.3739Z" fill="#54372B"/>
<path d="M53.8529 46.473L53.798 46.7368C53.798 46.9054 53.765 47.1472 53.699 47.4623C53.6401 48.3333 53.6401 49.2074 53.699 50.0784C53.699 50.617 53.699 51.1776 53.765 51.8151C53.8157 52.4587 53.9449 53.0936 54.1497 53.7058C54.3695 54.359 54.6685 54.9829 55.04 55.5634C55.4234 56.1837 55.7473 56.8388 56.0073 57.52C56.2509 58.2258 56.3482 58.9738 56.2931 59.7184C56.2322 60.4209 56.1071 61.1163 55.9194 61.7959C55.7545 62.4555 55.5457 63.082 55.3478 63.6756C55.15 64.2691 54.9631 64.8297 54.7433 65.3244C54.3896 66.1224 53.9191 66.8633 53.3473 67.5228C53.1384 67.7646 52.9625 67.9405 52.8416 68.0614L52.6548 68.2373L52.8307 68.0504C53.0026 67.8731 53.164 67.6859 53.3143 67.4898C53.8348 66.7929 54.2634 66.0319 54.5894 65.2255C54.7872 64.7308 54.9631 64.1263 55.139 63.5767C55.3149 63.0271 55.5017 62.3565 55.6666 61.697C55.8416 61.0304 55.9593 60.3501 56.0183 59.6635C56.0626 58.9616 55.9616 58.2581 55.7216 57.597C55.4743 56.9284 55.1652 56.2844 54.7982 55.6734C54.4252 55.0726 54.1227 54.4309 53.8969 53.7608C53.6977 53.1297 53.5795 52.4759 53.5451 51.8151C53.5451 51.1776 53.5451 50.5951 53.5451 50.0564C53.5242 49.1784 53.572 48.3 53.688 47.4293C53.7207 47.1848 53.7684 46.9425 53.8309 46.7038L53.8529 46.473Z" fill="#54372B"/>
<path d="M53.2813 45.9564C53.006 47.4715 52.8991 49.0125 52.9625 50.5511C52.8402 52.1691 53.1553 53.7903 53.8749 55.2447C54.3947 56.0793 54.8468 56.9541 55.2269 57.8608C55.7875 59.5865 55.0181 61.5651 54.5454 63.2799C54.1796 64.971 53.3454 66.5251 52.1381 67.7646C52.5651 66.3715 52.874 64.9448 53.0615 63.4997C53.1448 61.9481 52.882 60.3974 52.292 58.96C51.631 57.7077 51.0402 56.4197 50.5223 55.1018C50.2635 53.3119 50.507 51.4852 51.2258 49.8256C51.553 48.3754 52.2628 47.0394 53.2813 45.9564Z" fill="#54372B"/>
<path d="M53.0505 71.7879C43.8831 71.7879 36.4195 64.9729 36.4195 56.586C36.4195 48.199 43.8831 41.3729 53.0505 41.3729C62.2178 41.3729 69.6925 48.199 69.6925 56.586C69.6925 64.9729 62.2288 71.7879 53.0505 71.7879ZM53.0505 42.1094C44.2568 42.1094 37.189 48.5947 37.189 56.553C37.189 64.5112 44.3008 70.9855 53.0505 70.9855C61.8001 70.9855 68.923 64.5112 68.923 56.553C68.923 48.5947 61.8001 42.1424 53.0505 42.1424V42.1094Z" fill="#F8E4BE"/>
</svg>
